<?xml version="1.0" standalone="no"?>
<!DOCTYPE svg PUBLIC "-//W3C//DTD SVG 1.1//EN" "http://www.w3.org/Graphics/SVG/1.1/DTD/svg11.dtd" >
<svg xmlns="http://www.w3.org/2000/svg">
<metadata>Generated by IcoMoon</metadata>
<defs>
<font id="ita" horiz-adv-x="1024">
<font-face units-per-em="1024" ascent="960" descent="-64" />
<missing-glyph horiz-adv-x="1024" />
<glyph unicode="&#x20;" horiz-adv-x="512" d="" />
<glyph unicode="&#x46;" glyph-name="flickr" d="M832 960c51.199 0 96-19.2 134.4-57.6s57.6-83.2 57.6-134.4v-640c0-51.199-19.2-96-57.6-134.4s-83.2-57.6-134.4-57.6h-640c-51.199 0-96 19.2-134.4 57.6s-57.6 83.2-57.6 134.4v640c0 51.199 19.2 96 57.6 134.4s83.2 57.6 134.4 57.6h640zM467.201 448.001c0 38.4-12.799 70.399-44.8 102.4s-57.6 38.4-102.4 38.4c-38.4 0-70.399-12.799-96-44.8-25.6-25.6-44.8-57.6-44.8-102.4 0-38.4 12.799-70.399 44.8-102.4 25.6-19.2 64-31.999 96-31.999 38.4 0 70.399 12.799 102.4 44.8 25.6 25.6 44.8 57.6 44.8 96zM844.801 448.001c0 38.4-12.799 70.399-44.8 102.4-25.6 25.6-64 38.4-96 38.4-38.4 0-70.399-12.799-102.4-44.8-25.6-25.6-44.8-57.6-44.8-102.4 0-38.4 12.799-70.399 44.8-102.4 25.6-25.6 57.6-44.8 102.4-44.8 38.4 0 70.399 12.799 96 44.8 25.6 38.4 44.8 70.399 44.8 108.799z" />
<glyph unicode="&#x47;" glyph-name="googleplus" d="M537.599 134.397c0 6.4 0 19.2-6.4 25.6 0 6.4 0 12.799-6.4 19.2 0 6.4-6.4 12.799-12.799 19.2s-12.799 12.799-12.799 19.2c-6.4 6.4-12.799 12.799-19.2 19.2s-12.799 12.799-19.2 19.2c-6.4 0-12.799 6.4-19.2 12.799s-12.799 12.799-19.2 12.799c0 6.4-12.799 6.4-19.2 12.799-12.799 6.4-19.2 12.799-19.2 12.799-6.4 0-19.2 0-31.999 0-25.6 0-44.8 0-64-6.4s-44.8-6.4-64-19.2c-25.6-6.4-44.8-12.799-57.6-25.6-6.4 0-25.6-12.799-38.4-31.999s-19.2-38.4-19.2-64c0-25.6 6.4-51.199 19.2-70.399 12.799-25.6 31.999-38.4 57.6-51.199s44.8-25.6 70.399-25.6c25.6-6.4 51.199-12.799 76.8-12.799s44.8 0 70.399 6.4c19.2 6.4 38.4 12.799 57.6 25.6s31.999 25.6 44.8 44.8c25.6 12.799 31.999 31.999 31.999 57.6v0zM467.199 671.996c0 25.6 0 51.199-6.4 76.8s-19.2 51.199-31.999 76.8c-12.799 25.6-31.999 44.8-51.199 64-25.6 19.2-51.199 25.6-76.8 25.6-38.4 0-64-12.799-89.599-44.8s-31.999-64-31.999-102.4c0-19.2 0-38.4 6.4-57.6s12.799-44.8 19.2-64c6.4-19.2 19.2-38.4 31.999-57.6s25.6-31.999 44.8-38.4c19.2-12.799 38.4-12.799 57.6-12.799 38.4 0 70.399 12.799 83.2 38.4 31.999 19.2 44.8 51.199 44.8 96v0zM384 959.996h268.8l-83.2-44.8h-83.2c25.6-19.2 51.199-44.8 64-76.8 19.2-38.4 25.6-70.399 25.6-108.799 0-31.999-6.4-57.6-12.799-83.2-12.799-25.6-19.2-44.8-31.999-57.6s-25.6-25.6-38.4-38.4c-12.799-12.799-25.6-25.6-31.999-38.4-12.799-12.799-12.799-25.6-12.799-44.8 0-12.799 6.4-19.2 12.799-31.999s12.799-19.2 25.6-31.999c12.799-6.4 25.6-19.2 38.4-31.999 12.799-6.4 25.6-19.2 38.4-31.999s25.6-25.6 38.4-38.4c12.799-12.799 19.2-31.999 25.6-51.199s12.799-38.4 12.799-64c0-64-25.6-121.6-83.2-172.8-64-51.199-147.199-76.8-256-76.8-25.6 0-51.199 0-70.399 6.4-25.6 6.4-51.199 12.799-76.8 19.2-25.6 12.799-44.8 19.2-64 38.4s-31.999 31.999-44.8 51.199c-38.4 25.6-44.8 51.199-44.8 76.8s6.4 51.199 25.6 83.2c12.799 25.6 31.999 44.8 57.6 64s57.6 31.999 89.599 44.8c31.999 6.4 64 19.2 96 19.2 31.999 6.4 57.6 6.4 89.599 6.4-25.6 31.999-38.4 64-38.4 89.599 0 6.4 0 12.799 0 12.799 0 6.4 0 6.4 6.4 12.799 0 0 0 6.4 6.4 12.799 0 6.4 0 6.4 6.4 12.799-19.2 0-31.999-6.4-44.8-6.4-64 0-115.2 19.2-160 57.6-44.8 57.6-70.399 108.799-70.399 172.8 0 51.199 19.2 102.4 64 153.6 38.4 44.8 83.2 76.8 140.8 89.599 38.4 6.4 76.8 6.4 115.2 6.4v0zM1023.998 799.997v-76.8h-160v-160h-76.8v160h-160v76.8h160v160h76.8v-160h160z" />
<glyph unicode="&#x49;" glyph-name="instagram" d="M796.445 960h-568.889c-125.156 0-227.556-102.4-227.556-227.556v-568.889c0-125.156 102.4-227.556 227.556-227.556h568.889c125.156 0 227.556 102.4 227.556 227.556v568.889c0 125.156-102.4 227.556-227.556 227.556zM227.557 903.111h568.889c96.711 0 170.667-73.956 170.667-170.667v-147.911h-318.578c-39.822 17.067-91.022 34.133-136.533 34.133s-96.711-17.067-136.533-34.133h-318.578v147.911c0 96.711 73.956 170.667 170.667 170.667zM750.934 334.222c0-130.844-108.089-238.933-238.933-238.933s-238.933 102.4-238.933 238.933c0 85.333 45.511 164.978 119.467 204.8 34.133 17.067 73.956 34.133 119.467 34.133s85.333-11.378 119.467-34.133c73.956-45.511 119.467-119.467 119.467-204.8zM796.445-7.111h-568.889c-96.711 0-170.667 73.956-170.667 170.667v375.467h256c-51.2-51.2-85.333-125.156-85.333-204.8 0-159.289 125.156-284.444 284.444-284.444s284.444 125.156 284.444 284.444c0 79.644-34.133 153.6-85.333 204.8h256v-375.467c0-96.711-73.956-170.667-170.667-170.667zM512.001 453.689c68.267 0 125.156-56.889 125.156-125.156s-56.889-125.156-125.156-125.156-125.156 56.889-125.156 125.156 56.889 125.156 125.156 125.156zM512.001 499.2c-96.711 0-170.667-73.956-170.667-170.667s73.956-170.667 170.667-170.667 170.667 73.956 170.667 170.667-73.956 170.667-170.667 170.667v0zM807.823 800.711v-119.467h-119.467v119.467h119.467zM813.512 846.222h-130.844c-22.756 0-39.822-17.067-39.822-39.822v-130.844c0-22.756 17.067-39.822 39.822-39.822h130.844c22.756 0 39.822 17.067 39.822 39.822v130.844c0 22.756-17.067 39.822-39.822 39.822v0z" />
<glyph unicode="&#x4c;" glyph-name="linkedin" d="M1024 335.36v-378.88h-220.16v353.28c0 87.040-30.72 148.48-112.64 148.48-61.44 0-97.28-40.96-112.64-81.92-5.12-15.36-5.12-35.84-5.12-51.2v-368.64h-220.16c0 0 5.12 599.040 0 660.48h220.16v-92.16c0 0 0 0 0 0v0 0c30.72 46.080 81.92 107.52 199.68 107.52 143.36 0 250.88-92.16 250.88-296.96zM122.88 939.52c-71.68 0-122.88-51.2-122.88-117.76 0-61.44 46.080-112.64 122.88-112.64v0c76.8 0 122.88 51.2 122.88 112.64 0 66.56-46.080 117.76-122.88 117.76zM15.36-43.52h220.16v660.48h-220.16v-660.48z" />
<glyph unicode="&#x4d;" glyph-name="medium" d="M716.8 166.4l307.2-153.6c0 0 0 0 0 0s0 0 0 0v650.24l-307.2-496.64zM696.32 883.2l-215.040-348.16 209.92-343.040 322.56 532.48zM353.28 345.6l281.6-138.24-281.6 455.68zM0 181.76c0-5.12 5.12-10.24 10.24-15.36l307.2-153.6c0 0 0 0 0 0s0 0 0 0v706.56l-317.44 158.72v-696.32z" />
<glyph unicode="&#x53;" glyph-name="slideshare" d="M60.801 959.998v-492.799c-12.799 6.4-31.999 19.2-44.8 6.4s6.4-25.6 6.4-38.4c64-64 134.4-108.799 211.2-140.8-19.2-51.199-25.6-108.799-19.2-166.399 12.799-96 76.8-192 179.2-192 51.199 0 102.4 31.999 102.4 89.599v217.6c12.799 0 25.6-6.4 38.4-12.799v-198.4c0-12.799 0-25.6 6.4-38.4 19.2-31.999 57.6-51.199 96-51.199 108.799 6.4 166.399 96 179.2 192 6.4 57.6 0 115.2-19.2 166.399 70.399 31.999 204.799 89.599 223.999 172.8 0 12.799-6.4 12.799-19.2 12.799s-25.6-6.4-31.999-12.799v486.4h-908.8zM118.401 908.799h819.199v-473.599c-12.799-6.4-25.6-12.799-38.4-19.2l-729.6-12.799c-19.2 6.4-38.4 19.2-51.199 25.6v480zM387.201 659.199c-70.399 0-121.6-51.199-121.6-121.6 0-64 51.199-121.6 121.6-121.6 64 0 121.6 57.6 121.6 121.6s-51.199 121.6-121.6 121.6zM675.2 659.199c-64 0-121.6-51.199-121.6-121.6 0-64 57.6-121.6 121.6-121.6 70.399 0 121.6 57.6 121.6 121.6s-51.199 121.6-121.6 121.6z" />
<glyph unicode="&#x54;" glyph-name="twitter" d="M1024 763.734c-28.444-39.823-62.577-73.956-108.089-108.089v-28.444c0-96.711-22.756-187.733-62.577-278.756-45.511-91.023-113.777-164.977-210.489-227.556-91.023-62.577-199.111-91.023-318.577-91.023s-227.556 28.444-324.267 91.023c11.377 0 28.444 0 51.2 0 96.711 0 182.044 28.444 261.689 85.333-45.511 0-85.333 17.067-119.467 45.511s-62.577 62.577-73.956 102.4c5.689 0 17.067-5.689 34.133-5.689s39.823 0 56.889 5.689c-51.2 11.377-91.023 34.133-119.467 73.956-34.133 51.2-45.511 91.023-45.511 142.223v0c28.444-11.377 56.889-22.756 91.023-28.444-62.577 51.2-91.023 108.089-91.023 182.044 0 34.133 11.377 68.267 28.444 102.4 113.777-136.533 256-210.489 432.356-216.177-5.689 11.377-5.689 28.444-5.689 45.511 0 56.889 17.067 108.089 62.577 147.911 39.823 39.823 91.023 62.577 147.911 62.577 62.577 0 108.089-17.067 153.6-62.577 45.511 11.377 91.023 22.756 130.844 45.511-17.067-45.511-45.511-85.333-91.023-113.777 39.823 5.689 79.644 17.067 119.467 28.444z" />
<glyph unicode="&#x57;" glyph-name="whatsapp" d="M651.377 396.803c5.689 0 28.444-11.377 62.577-28.444 39.823-17.067 56.889-28.444 56.889-34.133 0 0 0-5.689 0-11.377 0-17.067-5.689-34.133-11.377-51.2s-22.756-34.133-45.51-45.51c-22.756-11.377-45.51-17.067-68.266-17.067s-68.266 11.377-125.156 39.823c-39.823 22.756-79.644 45.51-113.777 79.644s-62.577 73.956-96.71 125.156c-28.444 45.51-39.823 91.022-39.823 125.156v5.689c0 39.823 17.067 73.956 51.2 102.4 5.689 11.377 17.067 17.067 28.444 17.067 0 0 5.689 0 11.377 0s11.377 0 11.377 0 11.377 0 17.067-5.689c5.689 0 5.689-5.689 11.377-17.067 0-11.377 11.377-28.444 22.756-62.577 11.377-28.444 17.067-45.51 17.067-51.2 0-11.377-5.689-22.756-22.756-39.823-11.377-5.689-22.756-17.067-22.756-22.756 0 0 0-5.689 0-11.377 17.067-34.133 39.823-62.577 68.266-91.022 22.756-22.756 56.889-45.51 102.4-68.266 5.689 0 11.377-5.689 17.067-5.689s17.067 11.377 34.133 34.133c17.067 22.756 28.444 34.133 34.133 34.133v0zM520.532 44.094c56.889 0 108.089 11.377 164.977 34.133 51.2 22.756 96.71 51.2 130.843 85.333s68.266 79.644 85.333 130.843c22.756 51.2 34.133 108.089 34.133 164.977s-11.377 108.089-34.133 159.289c-22.756 56.889-51.2 102.4-91.022 136.533s-79.644 68.266-130.843 91.022c-51.2 22.756-108.089 34.133-164.977 34.133s-108.089-17.067-159.289-34.133c-51.2-22.756-96.71-51.2-130.843-91.022s-68.266-79.644-91.022-130.843c-22.756-51.2-28.444-108.089-28.444-164.977 0-91.022 22.756-170.666 79.644-244.622l-51.2-153.599 159.289 51.2c68.266-45.51 142.222-68.266 227.555-68.266zM520.532 960.001c68.266 0 130.843-11.377 193.422-39.823 62.577-22.756 113.777-62.577 159.289-108.089s79.644-96.71 108.089-159.289c28.444-62.577 39.823-125.156 39.823-193.422s-11.377-130.843-39.823-193.422c-22.756-62.577-62.577-113.777-108.089-159.289s-96.71-79.644-159.289-108.089c-62.577-22.756-125.156-39.823-193.422-39.823-85.333 0-164.977 22.756-238.932 62.577l-278.755-85.333 85.333 267.376c-45.51 73.956-68.266 164.977-68.266 255.999 0 68.266 11.377 130.843 39.823 193.422 22.756 62.577 62.577 113.777 108.089 159.289s96.71 79.644 159.289 108.089c56.889 28.444 125.156 39.823 193.422 39.823z" />
<glyph unicode="&#x59;" glyph-name="youtube" d="M1008.64 688.64c-10.24 56.32-56.32 92.16-112.64 102.4-128 15.36-256 15.36-384 15.36s-256 0-384-15.36c-51.2-5.12-97.28-46.080-112.64-102.4-15.36-76.8-15.36-158.72-15.36-240.64s0-163.84 15.36-240.64c10.24-56.32 56.32-92.16 112.64-102.4 128-15.36 256-15.36 384-15.36s256 0 384 15.36c51.2 5.12 97.28 46.080 112.64 102.4 15.36 76.8 15.36 158.72 15.36 240.64s0 163.84-15.36 240.64zM378.88 289.28c0 112.64 0 225.28 0 337.92 107.52-56.32 215.040-112.64 327.68-168.96-107.52-56.32-220.16-112.64-327.68-168.96z" />
<glyph unicode="&#x62;" glyph-name="behance" d="M885.029 652.8c10.971 0 18.286 7.314 18.286 18.286v51.2c0 10.971-7.314 18.286-18.286 18.286h-212.114c-10.971 0-18.286-7.314-18.286-18.286v-51.2c0-10.971 7.314-18.286 18.286-18.286h212.114zM786.286 506.514c43.886 0 80.457-21.943 102.4-58.514h-204.8c21.943 36.571 58.514 58.514 102.4 58.514zM1024 378.514c0 135.314-106.057 245.029-237.714 245.029s-237.714-109.714-237.714-245.029c0-135.314 106.057-245.029 237.714-245.029 80.457 0 153.6 40.229 197.486 109.714 7.314 7.314 10.971 18.286 14.629 25.6s0 14.629-7.314 14.629h-117.029c-3.657 0-3.657 0-7.314-3.657-21.943-21.943-47.543-32.914-80.457-32.914-58.514 0-106.057 43.886-117.029 102.4h332.8c14.629 0 21.943 10.971 21.943 21.943v7.314zM318.171 257.828h-204.8v164.571h204.8c43.886 0 80.457-36.571 80.457-80.457 3.657-47.543-32.914-84.114-80.457-84.114zM113.371 649.142h171.886c32.914 0 58.514-25.6 58.514-58.514s-25.6-58.514-58.514-58.514h-171.886v117.029zM431.543 499.2c18.286 29.257 29.257 62.171 25.6 95.086 0 95.086-80.457 168.229-175.543 168.229h-259.657c-10.971 0-21.943-10.971-21.943-21.943v-581.486c0-10.971 10.971-21.943 21.943-21.943h296.229c109.714 0 201.143 87.771 201.143 197.486-3.657 69.486-36.571 128-87.771 164.571z" />
<glyph unicode="&#x66;" glyph-name="facebook" d="M591.645 624.356h159.289l-17.067-176.356h-142.222v-511.999h-210.489v511.999h-108.089v176.356h108.089v108.089c0 73.956 17.067 130.844 51.2 170.666 39.823 39.823 96.711 56.889 176.356 56.889h142.222v-176.356h-85.333c-17.067 0-28.444 0-39.823-5.689-11.377 0-17.067-5.689-22.756-11.377-5.689-11.377-5.689-17.067-11.377-22.756 0-5.689 0-17.067 0-28.444v-91.023z" />
<glyph unicode="&#x67;" glyph-name="github" d="M714.24-64h-271.36c0 0 0 81.92 0 138.24-184.32-40.96-240.64 102.4-240.64 102.4-35.84 66.56-66.56 102.4-66.56 102.4-66.56 40.96 0 35.84 0 35.84 66.56 0 102.4-66.56 102.4-66.56 61.44-102.4 168.96-87.040 204.8-66.56 0 35.84 15.36 87.040 35.84 102.4-148.48 10.24-276.48 97.28-276.48 266.24s35.84 204.8 71.68 240.64c-10.24 15.36-35.84 76.8 0 168.96 0 0 66.56 0 133.12-102.4 35.84 35.84 138.24 35.84 168.96 35.84 35.84 0 138.24 0 168.96-35.84 66.56 102.4 133.12 102.4 133.12 102.4 35.84-92.16 10.24-153.6 0-168.96 40.96-35.84 76.8-71.68 76.8-240.64s-122.88-256-271.36-271.36c20.48-15.36 35.84-76.8 35.84-102.4l-5.12-240.64z" />
<glyph unicode="&#x79;" glyph-name="youtube-text" d="M628.019 248.749v-121.064c0-25.221-10.088-40.354-20.178-40.354s-20.178 5.045-25.221 10.088v171.508c10.088 10.088 15.133 15.133 25.221 15.133 15.133 0 20.178-15.133 20.178-35.311v0zM824.749 243.704v-25.221h-50.444v25.221c0 25.221 10.088 40.354 25.221 40.354s25.221-15.133 25.221-40.354v0zM264.827 369.813h60.532v50.444h-176.551v-50.444h60.532v-327.882h60.532v327.882zM431.29 41.931h50.444v282.482h-50.444v-216.907c-10.088-15.133-20.178-25.221-30.266-25.221s-10.088 5.045-10.088 10.088c0 0 0 10.088 0 20.178v206.817h-50.444v-226.995c0-20.178 0-30.266 5.045-40.354 5.045-15.133 15.133-20.178 35.311-20.178s40.354 10.088 60.532 35.311v-25.221zM678.463 127.685v116.019c0 25.221 0 45.399-5.045 55.487-5.045 20.178-20.178 30.266-40.354 30.266s-40.354-10.088-55.487-30.266v126.109h-50.444v-383.37h50.444v30.266c20.178-20.178 35.311-30.266 55.487-30.266s35.311 10.088 40.354 30.266c5.045 10.088 5.045 25.221 5.045 55.487zM875.192 132.729v10.088h-50.444c0-20.178 0-30.266 0-35.311 0-10.088-10.088-20.178-20.178-20.178-20.178 0-25.221 15.133-25.221 40.354v50.444h100.886v60.532c0 30.266-5.045 50.444-15.133 65.577-15.133 20.178-35.311 30.266-60.532 30.266s-45.399-10.088-60.532-30.266c-10.088-15.133-15.133-35.311-15.133-65.577v-100.886c0-30.266 5.045-50.444 20.178-65.577 15.133-20.178 35.311-30.266 60.532-30.266s50.444 10.088 60.532 30.266c10.088 10.088 10.088 20.178 10.088 30.266-5.045 0-5.045 15.133-5.045 30.266zM522.088 657.34v121.064c0 25.221-10.088 40.354-25.221 40.354s-25.221-15.133-25.221-40.354v-121.064c0-25.221 10.088-40.354 25.221-40.354 20.178 0 25.221 15.133 25.221 40.354zM940.769 228.571c0-90.798-5.045-156.375-15.133-201.774-5.045-20.178-15.133-40.354-30.266-55.487-20.178-15.133-35.311-25.221-60.532-25.221-70.62-10.088-176.551-10.088-322.838-10.088s-252.216 0-322.838 5.045c-20.178 0-40.354 10.088-60.532 25.221-15.133 15.133-30.266 35.311-30.266 55.487-10.088 45.399-15.133 110.976-15.133 201.774s5.045 156.375 15.133 201.774c5.045 25.221 15.133 40.354 30.266 60.532 20.178 15.133 35.311 25.221 60.532 25.221 70.62 10.088 176.551 10.088 317.793 10.088s252.216-5.045 322.838-10.088c20.178 0 40.354-10.088 60.532-25.221 15.133-15.133 30.266-35.311 30.266-60.532 15.133-40.354 20.178-105.931 20.178-196.729v0zM365.715 960h60.532l-75.665-226.995v-156.375h-55.487v156.375c-5.045 25.221-15.133 65.577-35.311 121.064-15.133 40.354-25.221 75.665-35.311 105.931h60.532l40.354-151.33 40.354 151.33zM577.577 768.316v-100.886c0-30.266-5.045-55.487-15.133-70.62-15.133-20.178-35.311-30.266-60.532-30.266s-45.399 10.088-60.532 30.266c-10.088 15.133-15.133 40.354-15.133 70.62v100.886c0 30.266 5.045 50.444 15.133 65.577 15.133 20.178 35.311 30.266 60.532 30.266s45.399-10.088 60.532-30.266c10.088-10.088 15.133-35.311 15.133-65.577zM769.261 864.158v-287.527h-50.444v30.266c-20.178-25.221-40.354-35.311-60.532-35.311s-30.266 5.045-35.311 20.178c-5.045 10.088-5.045 25.221-5.045 45.399v226.995h50.444v-211.862c0-10.088 0-20.178 0-20.178 0-10.088 5.045-10.088 10.088-10.088 10.088 0 20.178 10.088 30.266 25.221v216.907h60.532z" />
<glyph unicode="&#x2263;" glyph-name="list" d="M0 504.889h113.777v-113.777h-113.777v113.777zM0 277.333h113.777v-113.777h-113.777v113.777zM0 732.444h113.777v-113.777h-113.777v113.777zM227.556 504.889h796.444v-113.777h-796.444v113.777zM227.556 277.333h796.444v-113.777h-796.444v113.777zM227.556 732.444h796.444v-113.777h-796.444v113.777z" />
<glyph unicode="&#x22ee;" glyph-name="more-items" d="M640 448c0-70.692-57.308-128-128-128s-128 57.308-128 128c0 70.692 57.308 128 128 128s128-57.308 128-128zM640 832c0-70.692-57.308-128-128-128s-128 57.308-128 128c0 70.692 57.308 128 128 128s128-57.308 128-128zM640 64c0-70.692-57.308-128-128-128s-128 57.308-128 128c0 70.692 57.308 128 128 128s128-57.308 128-128z" />
<glyph unicode="&#x22ef;" glyph-name="more-actions" d="M640.001 448c0-70.692-57.308-128-128-128s-128 57.308-128 128c0 70.692 57.308 128 128 128s128-57.308 128-128zM256 448c0-70.692-57.308-128-128-128s-128 57.308-128 128c0 70.692 57.308 128 128 128s128-57.308 128-128zM1024.001 448c0-70.692-57.308-128-128-128s-128 57.308-128 128c0 70.692 57.308 128 128 128s128-57.308 128-128z" />
<glyph unicode="&#x23f4;" glyph-name="chevron-left" d="M827.733 840.534l-119.466 119.466-512-512 512-512 119.466 119.466-392.534 392.534 392.534 392.534z" />
<glyph unicode="&#x23f5;" glyph-name="chevron-right" d="M196.267 55.466l119.466-119.466 512 512-512 512-119.466-119.466 392.534-392.534-392.534-392.534z" />
<glyph unicode="&#x23f6;" glyph-name="expand" d="M119.466 763.733l-119.466-119.466 512-512 512 512-119.466 119.466-392.534-392.534-392.534 392.534z" />
<glyph unicode="&#x23f7;" glyph-name="collapse" d="M904.534 132.267l119.466 119.466-512 512-512-512 119.466-119.466 392.534 392.534 392.534-392.534z" />
<glyph unicode="&#x25b2;" glyph-name="drop-down" d="M0 192l512 512 512-512z" />
<glyph unicode="&#x25bc;" glyph-name="drop-up" d="M1024 704l-512-512-512 512z" />
<glyph unicode="&#x25ef;" glyph-name="radio-button" d="M512 960c-281.6 0-512-230.4-512-512s230.4-512 512-512 512 230.4 512 512c0 281.6-230.4 512-512 512zM512 38.401c-225.279 0-409.599 184.32-409.599 409.599s184.32 409.599 409.599 409.599 409.599-184.32 409.599-409.599c0-225.279-184.32-409.599-409.599-409.599z" />
<glyph unicode="&#x2609;" glyph-name="radio-button-checked" d="M512 703.999c-143.36 0-255.999-112.64-255.999-255.999s112.64-255.999 255.999-255.999 255.999 112.64 255.999 255.999-112.64 255.999-255.999 255.999zM512 960c-281.6 0-512-230.4-512-512s230.4-512 512-512 512 230.4 512 512-230.4 512-512 512zM512 38.401c-225.279 0-409.599 184.32-409.599 409.599s184.32 409.599 409.599 409.599 409.599-184.32 409.599-409.599-184.32-409.599-409.599-409.599z" />
<glyph unicode="&#x2610;" glyph-name="checkbox" d="M910.222 846.222v-796.445h-796.445v796.445h796.445zM910.222 960h-796.445c-62.577 0-113.777-51.2-113.777-113.777v-796.445c0-62.577 51.2-113.777 113.777-113.777h796.445c62.577 0 113.777 51.2 113.777 113.777v796.445c0 62.577-51.2 113.777-113.777 113.777z" />
<glyph unicode="&#x2611;" glyph-name="checkbox-checked" d="M910.222 960h-796.445c-62.577 0-113.777-51.2-113.777-113.777v-796.445c0-62.577 51.2-113.777 113.777-113.777h796.445c62.577 0 113.777 51.2 113.777 113.777v796.445c0 62.577-51.2 113.777-113.777 113.777zM398.222 163.555l-284.444 284.444 79.644 79.644 204.8-204.8 432.357 432.357 79.644-79.644-512.001-512.001z" />
<glyph unicode="&#x2613;" glyph-name="cancel" d="M1024 448c0-281.6-230.4-512-512-512s-512 230.4-512 512 230.4 512 512 512 512-230.4 512-512zM803.84 663.040l-71.68 71.68-220.16-215.040-215.040 220.16-76.8-76.8 215.040-215.040-215.040-215.040 71.68-71.68 215.040 215.040 215.040-215.040 71.68 71.68-209.919 215.040 220.16 215.040z" />
<glyph unicode="&#x2661;" glyph-name="favorite" d="M745.244 846.223v0c113.777 0 221.867-68.267 221.867-199.111 0-193.423-301.511-466.489-455.111-580.267-153.6 119.467-455.111 392.533-455.111 580.267 0 136.533 113.777 199.111 216.177 199.111 85.333 0 153.6-39.823 193.423-102.4 11.377-17.067 28.444-28.444 51.2-28.444 0 0 0 0 0 0 22.756 0 39.823 11.377 51.2 34.133 28.444 56.889 96.711 96.711 176.356 96.711zM745.244 903.111c-96.711 0-187.733-45.511-233.244-136.533-51.2 91.023-147.911 136.533-238.933 136.533-136.533 0-273.067-91.023-273.067-256 0-284.444 512-654.223 512-654.223s512 369.777 512 654.223c0 164.977-142.223 256-278.756 256v0z" />
<glyph unicode="&#x2699;" glyph-name="settings" d="M591.36 908.799l15.36-112.64 5.12-30.72 25.6-10.24c25.6-10.24 51.2-25.6 76.8-40.96l25.6-15.36 20.48 5.12 107.52 46.080 81.92-138.24-92.16-71.68-20.48-15.36 5.12-30.72c0-15.36 5.12-30.72 5.12-46.080s0-25.6-5.12-46.080l-5.12-30.72 20.48-15.36 92.16-71.68-81.92-138.24-107.52 46.080-25.6 10.24-20.48-15.36c-25.6-20.48-51.2-35.84-76.8-46.080l-25.6-10.24-5.12-30.72-15.36-112.64h-158.72l-15.36 112.64-10.24 30.72-25.6 10.24c-25.6 10.24-51.2 25.6-76.8 40.96l-25.6 15.36-20.48-5.12-107.52-46.080-81.92 138.24 92.16 71.68 20.48 15.36-5.12 30.72c0 15.36-5.12 30.72-5.12 46.080s0 25.6 5.12 46.080l5.12 30.72-20.48 15.36-92.16 66.56 81.92 143.36 107.52-46.080 25.6-10.24 20.48 20.48c25.6 15.36 51.2 30.72 76.8 40.96l25.6 10.24 5.12 30.72 15.36 112.64h163.84zM509.44 217.599c128 0 230.4 102.4 230.4 230.4s-102.4 230.4-230.4 230.4-230.4-102.4-230.4-230.4 102.4-230.4 230.4-230.4zM611.84 960h-204.8c-10.24 0-25.6-10.24-25.6-20.48l-20.48-138.24c-30.72-10.24-56.32-30.72-87.040-51.2l-122.88 51.2c-5.12 5.12-10.24 5.12-10.24 5.12-10.24 0-20.48-5.12-25.6-15.36l-102.4-179.2c-5.12-5.12 0-20.48 10.24-30.72l107.52-81.92c0-15.36-5.12-30.72-5.12-51.2s0-35.84 5.12-51.2l-107.52-87.040c-10.24-5.12-10.24-20.48-5.12-30.72l102.4-179.2c0-5.12 10.24-10.24 20.48-10.24 5.12 0 5.12 0 10.24 0l128 51.2c25.6-20.48 56.32-35.84 87.040-51.2l20.48-133.12c0-10.24 10.24-20.48 25.6-20.48h204.8c10.24 0 25.6 10.24 25.6 20.48l20.48 133.12c30.72 10.24 61.44 30.72 87.040 51.2l128-51.2c5.12 0 5.12 0 10.24 0 10.24 0 15.36 5.12 20.48 15.36l102.4 179.2c5.12 10.24 5.12 25.6-5.12 30.72l-117.76 81.92c0 15.36 5.12 30.72 5.12 51.2s0 35.84-5.12 51.2l107.52 87.040c10.24 5.12 10.24 20.48 5.12 30.72l-102.4 179.2c0 5.12-10.24 10.24-20.48 10.24-5.12 0-5.12 0-10.24 0l-128-51.2c-25.6 20.48-56.32 35.84-87.040 51.2l-20.48 138.24c5.12 5.12-5.12 15.36-20.48 15.36v0zM509.44 268.799c-97.28 0-179.2 81.92-179.2 179.2s81.92 179.2 179.2 179.2 179.2-81.92 179.2-179.2-81.92-179.2-179.2-179.2v0z" />
<glyph unicode="&#x26a0;" glyph-name="warning" d="M458.666 128c0 32 21.334 53.334 53.334 53.334s53.334-21.334 53.334-53.334c0-32-21.334-53.334-53.334-53.334s-53.334 21.334-53.334 53.334zM480 234.667l-10.666 479.999h85.334l-10.666-479.999zM512 874.666c32 0 64-16 80-42.666l330.666-666.664c16-26.666 16-64 0-90.666s-48-48-80-48h-661.332c-32 0-64 16-80 48-16 26.666-16 64 0 90.666v0 0l330.666 666.664c16 26.666 48 42.666 80 42.666zM512 927.999c-48 0-96-26.666-128-74.666l-330.666-666.664c-53.334-96 16-218.666 128-218.666h661.332c112 0 181.334 122.666 128 218.666l-330.666 666.664c-32 53.334-80 74.666-128 74.666v0z" />
<glyph unicode="&#x26b2;" glyph-name="zoom-in" d="M0-23.955l320.357 320.357c-62.927 68.648-97.251 160.179-97.251 263.151 0 223.106 177.341 400.447 400.447 400.447s400.447-177.341 400.447-400.447c0-223.106-177.341-400.447-400.447-400.447-102.972 0-194.503 40.045-263.151 97.251l-320.357-320.357-40.045 40.045zM623.553 210.593c188.782 0 343.24 154.458 343.24 343.24s-154.458 343.24-343.24 343.24-343.24-154.458-343.24-343.24 154.458-343.24 343.24-343.24zM451.933 576.715h143.017v143.017h57.207v-143.017h143.017v-57.207h-143.017v-143.017h-57.207v143.017h-143.017z" />
<glyph unicode="&#x26da;" glyph-name="expand-media" d="M1001.245-64h-978.489c-11.377 0-22.756 11.377-22.756 22.756v972.8c0 17.067 11.377 28.444 22.756 28.444h972.8c17.067 0 28.444-11.377 28.444-28.444v-972.8c0-11.377-11.377-22.756-22.756-22.756zM51.201-12.8h921.6v921.6h-921.6v-921.6zM768.001 539.023c-11.377 0-22.756 11.377-22.756 22.756v113.777h-113.777c-11.377 0-22.756 11.377-22.756 22.756-5.689 17.067 5.689 34.133 17.067 34.133h142.223c17.067 0 28.444-17.067 28.444-28.444v-142.223c0-11.377-11.377-22.756-28.444-22.756v0zM256.001 539.023c-17.067 0-28.444 11.377-28.444 22.756v142.223c0 11.377 11.377 28.444 28.444 28.444h142.223c11.377 0 22.756-11.377 22.756-28.444 0-11.377-11.377-22.756-22.756-22.756h-113.777v-113.777c-5.689-17.067-17.067-28.444-28.444-28.444v0zM398.224 163.556h-142.223c-17.067 0-28.444 11.377-28.444 28.444v142.223c0 11.377 11.377 22.756 22.756 22.756s22.756-11.377 22.756-22.756v-113.777h113.777c11.377 0 22.756-11.377 22.756-22.756s0-34.133-11.377-34.133v0zM768.001 163.556h-142.223c-11.377 0-22.756 11.377-22.756 22.756s11.377 22.756 22.756 22.756h113.777v113.777c0 11.377 11.377 22.756 22.756 22.756s22.756-11.377 22.756-22.756v-142.223c11.377-5.689 0-17.067-17.067-17.067v0z" />
<glyph unicode="&#x2713;" glyph-name="check" d="M1024 746.165l-90.353 84.329-590.306-596.33-259.012 259.012-84.329-90.353 259.012-252.988h-6.024l90.353-84.329 84.329 84.329z" />
<glyph unicode="&#x27f3;" glyph-name="refresh" d="M910.221 447.999c0-221.867-176.356-398.223-398.223-398.223s-398.223 176.356-398.223 398.223c0 221.867 176.356 398.223 398.223 398.223 96.711 0 187.733-34.133 261.689-96.711l-130.844-130.844h324.267v318.577l-113.777-113.777c-91.023 91.023-216.177 136.533-341.333 136.533-284.444 0-512-227.556-512-512s227.556-512 512-512 512 227.556 512 512h-113.777z" />
<glyph unicode="&#x27f5;" glyph-name="arrow-left" d="M1024 512h-780.8l358.4 358.4-89.6 89.6-512-512 89.6-89.6 416-422.4 89.6 89.6-352.001 358.4h780.8z" />
<glyph unicode="&#x27f6;" glyph-name="arrow-right" d="M0 384h780.8l-358.4-358.4 89.6-89.6 512 512-89.6 89.6-416 422.4-96-89.6 358.4-358.4h-780.8z" />
<glyph unicode="&#x2b06;" glyph-name="upload" d="M15.515 960h992.97v-62.061h-992.97v62.061zM511.999 717.963l341.334-322.716h-186.182v-397.188h-297.891v403.393h-198.593l341.334 316.509zM511.999 804.848l-496.484-465.455h285.479v-403.393h428.218v403.393h279.273l-496.484 465.455z" />
<glyph unicode="&#x2b07;" glyph-name="download" d="M18.506-2.312h986.988v-61.687h-986.988v61.687zM660.047 898.315v-400.963h191.229l-339.277-320.771-339.277 320.771h185.060v400.963h302.265zM721.734 960h-425.638v-400.963h-277.59l493.493-462.65 493.493 462.65h-283.759v400.963z" />
<glyph unicode="&#x2b61;" glyph-name="arrow-up" d="M576-64v780.8l358.4-358.4 89.6 89.6-512 512-89.6-89.6-422.4-416 89.6-96 358.4 358.4v-780.8z" />
<glyph unicode="&#x2b63;" glyph-name="arrow-down" d="M448 960v-780.8l-358.4 358.4-89.6-89.6 512-512 89.6 89.6 422.4 416-89.6 96-358.4-358.4v780.8z" />
<glyph unicode="&#xe900;" glyph-name="orderAsc" horiz-adv-x="1365" d="M1365.333 21.333c0 47.124-44.511 85.333-99.444 85.333h-1166.445c-54.917 0-99.444-38.195-99.444-85.333v0c0-47.124 44.511-85.333 99.444-85.333h1166.461c54.917 0 99.428 38.209 99.428 85.333v0zM1194.667 448c0 47.124-44.038 85.333-98.387 85.333h-827.227c-54.332 0-98.387-38.195-98.387-85.333v0c0-47.124 44.038-85.333 98.387-85.333h827.243c54.332 0 98.37 38.209 98.37 85.333v0zM938.667 874.667c0 47.124-42.241 85.333-94.372 85.333h-323.256c-52.115 0-94.372-38.195-94.372-85.333v0c0-47.124 42.241-85.333 94.372-85.333h323.272c52.115 0 94.356 38.209 94.356 85.333v0z" />
<glyph unicode="&#xe901;" glyph-name="orderDesc" horiz-adv-x="1365" d="M1365.333 874.667c0-47.124-44.511-85.333-99.444-85.333h-1166.445c-54.917 0-99.444 38.195-99.444 85.333v0c0 47.124 44.511 85.333 99.444 85.333h1166.461c54.917 0 99.428-38.209 99.428-85.333v0zM1194.667 448c0-47.124-44.038-85.333-98.387-85.333h-827.227c-54.332 0-98.387 38.195-98.387 85.333v0c0 47.124 44.038 85.333 98.387 85.333h827.243c54.332 0 98.37-38.209 98.37-85.333v0zM938.667 21.333c0-47.124-42.241-85.333-94.372-85.333h-323.256c-52.115 0-94.372 38.195-94.372 85.333v0c0 47.124 42.241 85.333 94.372 85.333h323.272c52.115 0 94.356-38.209 94.356-85.333v0z" />
<glyph unicode="&#xe902;" glyph-name="home" d="M1024 369.556l-512 397.426-512-397.428v162.038l512 397.426 512-397.428zM896 384v-384h-256v256h-256v-256h-256v384l384 288z" />
<glyph unicode="&#xe903;" glyph-name="home2" d="M512 928l-512-512 96-96 96 96v-416h256v192h128v-192h256v416l96-96 96 96-512 512zM512 512c-35.346 0-64 28.654-64 64s28.654 64 64 64c35.346 0 64-28.654 64-64s-28.654-64-64-64z" />
<glyph unicode="&#xe904;" glyph-name="home3" d="M1024 352l-192 192v288h-128v-160l-192 192-512-512v-32h128v-320h320v192h128v-192h320v320h128z" />
<glyph unicode="&#xe905;" glyph-name="office" d="M0-64h512v1024h-512v-1024zM320 832h128v-128h-128v128zM320 576h128v-128h-128v128zM320 320h128v-128h-128v128zM64 832h128v-128h-128v128zM64 576h128v-128h-128v128zM64 320h128v-128h-128v128zM576 640h448v-64h-448zM576-64h128v256h192v-256h128v576h-448z" />
<glyph unicode="&#xe906;" glyph-name="newspaper" d="M896 704v128h-896v-704c0-35.346 28.654-64 64-64h864c53.022 0 96 42.978 96 96v544h-128zM832 128h-768v640h768v-640zM128 640h640v-64h-640zM512 512h256v-64h-256zM512 384h256v-64h-256zM512 256h192v-64h-192zM128 512h320v-320h-320z" />
<glyph unicode="&#xe907;" glyph-name="pencil" d="M864 960c88.364 0 160-71.634 160-160 0-36.020-11.91-69.258-32-96l-64-64-224 224 64 64c26.742 20.090 59.978 32 96 32zM64 224l-64-288 288 64 592 592-224 224-592-592zM715.578 596.422l-448-448-55.156 55.156 448 448 55.156-55.156z" />
<glyph unicode="&#xe908;" glyph-name="alboFornitori" horiz-adv-x="1286" d="M1278.812 246.15l-2.033 13.235c-1.575-2.193-3.78-4.257-6.759-6.037 5.126 0-816.006-284.428-816.006-284.428s-27.922-9.055-41.21 0c-1.088 0-244.395 208.348-334.805 285.795l3.895-15.737c0 0 320.285-291.6 320.285-292.812 34.279-21.542 71.766-2.399 71.766-2.399s789.258 290.955 789.258 289.768c17.383 6.088 15.608 12.615 15.608 12.615zM257.315 337.152l-19.932 489.448 129.958 14.834 13.288-473.634-123.314-30.649zM114.842 306.503l-27.635 16.279-33.936 493.266 33.936-5.753 143.533 16.305 15.923-491.357-131.82-28.739zM846.051 894.115l-11.942-419.276-84.797-20.845-2.921 429.106 99.66 11.016zM382.778 846.697l153.098-45.973h65.094l-122.513 55.544 14.348-3.689v3.715l132.908 13.88v-52.010l3.895-1.006-0.802 53.016 113.978 12.925v-431.040l-79.327-19.426v-14.215l178.614 45.147 24.829 455.446c0 0 5.699 18.214-17.727 19.168-3.551-4.799-811.595-74.248-811.595-74.248s-35.454-3.199-31.903-28.714c-3.551-4.799 70.879-565.115 70.879-565.115l346.489 87.56-31.759 17.801-8.505 471.234zM625.148 251.266c-1.461 1.935-0.601 0.903 1.747 1.703-3.036 0.155-6.071 0.361-9.135 0.516-18.987-8.926-53.982-9.004-69.303-21.851 6.873-2.038 20.734-7.507 24.199-13.183 5.556 1.883 20.562 9.236 27.979 7.43 1.203 1.857 1.661 2.141 3.494 3.38-2.176 5.289-12.228 9.21-18.615 10.087-0.315 0.258-0.63 0.542-0.945 0.8 0 0.284-0.029 0.542-0.029 0.826 1.203 0.593 2.377 1.161 3.58 1.754 7.074-1.109 21.307-6.914 24.17-12.383 9.594 3.044 19.216 6.088 28.81 9.107l2.663 0.929c-0.315 0.8-0.659 1.625-1.002 2.425l-17.612 8.462zM384.41 186.264c-7.474-2.683-14.978-5.366-22.452-8.075-0.057-1.109 15.951-9.881 22.28-10.784-0.63-3.689 4.067-2.657 8.305-3.018-0.802 1.986 0.401 0.387-1.919 2.399 3.351 0.181 25.631 2.244 22.423 9.726-5.241 5.598-17.097 10.423-28.638 9.752zM522.705 214.408c0.029-0.8 0.057-1.625 0.115-2.451 0.286 0 0.573 0.026 0.888 0.026l-1.002 2.425zM753.932 265.979c-0.029 0.284-0.029 0.542-0.029 0.826-0.916 0.232-1.833 0.49-2.778 0.722 1.718-1.6 0-0.593 2.807-1.548zM751.22 265.071c-2.434 0.206-4.868 0.413-7.303 0.593-2.892-3.405-10.596-4.283-15.321-3.767 6.386-3.844 15.436 1.909 22.624 3.173zM689.861 250.018c1.69 1.187 0.573 0.077 1.776 1.703-0.63-0.026-1.203-0.052-1.833-0.077 0.029-0.542 0.029-1.084 0.057-1.625zM382.368 191.948c-8.448 4.644-14.92 10.397-28.609 9.752-8.391-2.709-16.782-5.443-25.201-8.152 21.278-11.222 29.984-12.693 53.896-4.050-0.029 0.826-0.057 1.625-0.086 2.451zM549.498 228.378c2.52-2.477-11.77 2.322-14.691 2.812-0.43-6.45-15.264-2.399-21.478-9.7 7.818-6.166 17.383-3.896 22.395-13.235 10.796-2.322 18.156 6.527 27.063 6.604 0.544 7.146-9.021 11.3-13.288 13.518zM461.039 183.759c1.69 1.213 0.544 0.077 1.747 1.703-0.601-0.026-1.203-0.052-1.804-0.077 0.029-0.542 0.029-1.084 0.057-1.625zM392.506 188.986c10.825-5.056 22.309-5.289 31.502-13.776 6.816 3.38 15.178 5.727 26.146 7.378 0.544 1.651 1.088 3.328 1.632 4.979-9.193 4.36-15.293 10.371-29.526 9.726-7.245-3.999-19.961-7.972-29.755-8.307zM626.826 254.605c7.417-3.070 14.834-6.088 22.223-9.158 7.188-7.224 17.755 2.451 32.59 5.134 0.258 1.367 0.515 2.76 0.745 4.128-6.787 2.786-13.546 5.598-20.361 8.384v0.8c2.377 0.645 4.783 1.264 7.188 1.883 1.604-4.102 17.355-8.152 22.366-12.409 6.415 3.534 22.71 5.572 29.669 9.932-0.029 0.542-0.057 1.084-0.057 1.651-7.761 6.862-19.13 9.803-26.862 10.629-22.481-6.991-44.99-13.983-67.499-20.974zM586.275 266.443c1.231-0.232 2.463-0.464 3.694-0.697-0.029 0.258-0.029 0.542-0.057 0.8-1.203-0.026-2.406-0.077-3.637-0.103zM626.852 277.568c-8.677-3.973-23.254-3.225-32.475-8.41-0.888-0.568-1.776-1.161-2.692-1.728 14.061-17.801 30.27-7.585 51.204-4.128 0.229 1.367 0.487 2.76 0.745 4.128-5.842 2.27-11.713 4.566-17.555 6.837-0.344 0.542-0.659 1.058-1.002 1.6 3.293 0.671 2.749 0.413 4.496 1.78-0.916-0.026-1.833-0.052-2.721-0.077zM507.046 218.84c1.203 0.31 2.406 0.619 3.608 0.929-6.3 2.115-11.026-0.697-17.24-2.167-0.315 0.8-0.659 1.625-1.002 2.425 1.203 0.31 2.406 0.619 3.608 0.929-0.573-0.026-1.203-0.026-1.804-0.052 0.601 0.284 1.203 0.593 1.776 0.877-3.895 4.824-12.687 9.133-19.531 10.861-0.344 0.542-0.659 1.084-1.002 1.625 3.694 0.077 3.122 0.155 6.329 1.806 6.358-3.792 17.269-6.527 21.421-12.435l62.173 18.368c-0.057 0.8-0.086 1.625-0.115 2.451-5.871 2.838-11.742 5.65-17.641 8.462-0.601-0.026-1.203-0.026-1.804-0.052 1.489 0.593 2.978 1.187 4.496 1.78-0.029 0.284-0.029 0.542-0.029 0.826-0.916-0.052-1.861-0.077-2.749-0.077l-23.483-4.85c-22.366-6.708-40.608-10.655-62.201-17.543-8.362-2.683-14.949-7.636-25.201-8.178 3.351 0.103 6.673 0.206 10.023 0.31 6.816-3.612 13.632-7.224 20.447-10.835 3.007-1.445 18.271 2.554 23.512 4.85 0.63-0.258 1.231-0.516 1.861-0.774-4.868-4.334-19.445-8.256-25.259-6.527 0.659-1.058 1.289-2.141 1.947-3.225-15.35-0.258-22.796-7.714-38.833-8.591 2.835-1.471 7.274 1.135 10.023-0.516 4.553-2.709 15.121-8.333 22.395-13.235 7.618 4.231 13.689 5.469 18.042 4.67 0.573 1.548 0.945 0.284-0.086 1.625 2.549 0.619 2.033 0.206 4.582-0.671l5.212 6.733c-6.186 3.070-12.4 6.166-18.586 9.262-0.601 0.232-1.231 0.49-1.861 0.748 2.119 0.619 4.21 1.238 6.329 1.832 6.415-3.638 20.304-7.817 22.366-13.235 5.413 0.955 26.118 2.786 27.807 11.532-4.353 3.999-12.687 7.946-19.502 9.236 0 0.284-0.029 0.542-0.029 0.826zM552.070 256.341c3.15-4.308 19.474-12.228 24.142-11.532 9.279 2.76 18.586 5.495 27.893 8.256 0.286 0.568 0.573 1.109 0.859 1.677-5.269 5.211-17.125 11.042-27.75 10.603-8.391-3.018-16.782-5.985-25.144-9.004zM664.72 287.784c-11.026-4.489-23.712-4.721-33.392-8.436-0.258-0.826-0.544-1.651-0.802-2.477 5.642-2.967 18.958-10.603 24.056-9.907 5.957-0.206 22.28 5.366 27.893 9.055 0 0.284-0.029 0.568-0.029 0.826-6.186 2.838-12.372 5.624-18.529 8.462 1.174 0.851 2.348 1.703 3.551 2.554-0.945-0.026-1.861-0.052-2.749-0.077zM561.804 263.208c10.195 3.070 20.419 6.114 30.614 9.158-0.029 1.109-0.086 2.193-0.115 3.302-8.849 3.767-15.493 8.668-28.552 8.101-7.818-2.141-15.636-4.308-23.426-6.475 3.408-8.384 16.238-7.275 21.478-14.086zM500.697 265.399c0-0.284 0.029-0.542 0.029-0.826 5.985-4.386 17.097-6.579 21.421-12.461 9.622 3.044 19.216 6.088 28.81 9.107 0.888 0.593 1.776 1.161 2.692 1.728-5.269 5.366-17.125 10.861-27.75 10.629-8.42-2.735-16.81-5.469-25.201-8.178zM640.22 285.364c9.594 2.76 19.216 5.521 28.838 8.281-0.057 1.109-0.115 2.193-0.143 3.302-9.966 3.38-15.006 8.746-29.468 8.075-7.188-2.141-14.405-4.283-21.622-6.424 2.721-6.346 16.238-10.061 22.395-13.235zM704.432 297.231c-1.518 0.232-3.036 0.464-4.582 0.671-10.252-2.502-20.447-5.005-30.671-7.533-0.258-0.826-0.544-1.651-0.83-2.477 8.334-3.844 16.696-7.688 25.058-11.506 1.718 1.625 17.24 5.805 26.060 9.029 0.258 0.8 0.544 1.625 0.83 2.477-6.186 2.528-12.343 5.082-18.529 7.611-1.804 2.244 0.029 1.213 2.663 1.728zM467.568 297.156c0 0.284 0 0.542-0.029 0.826-4.238-0.129-8.477-0.284-12.744-0.387-7.789-2.167-15.636-4.334-23.426-6.475-0.573-1.393-1.117-2.786-1.661-4.179 7.102-1.78 15.951-5.469 20.419-10.010 9.909 2.76 19.817 5.547 29.755 8.333 0.573 0.826 1.146 1.677 1.718 2.502-4.954 2.58-9.909 5.134-14.863 7.74-0.544 1.754-0.745 0.516 0.83 1.651zM500.473 271.131c5.47-3.354 24.113 4.721 31.616 6.733-0.029 1.109-0.057 2.193-0.115 3.276-9.622 3.276-13.889 8.771-27.635 8.152-7.532-2.141-15.035-4.308-22.538-6.45-0.573-0.851-1.146-1.677-1.718-2.502 6.759-3.070 13.603-6.14 20.39-9.21zM518.847 290.568c-1.203-0.026-2.434-0.077-3.637-0.103 1.231-0.232 2.434-0.464 3.666-0.697 0 0.258-0.029 0.542-0.029 0.8zM600.565 274.281c9.909 2.76 19.817 5.547 29.726 8.307l0.745 4.128c-9.050 2.554-14.748 8.023-25.803 8.204-8.735-2.451-17.412-4.902-26.146-7.378 0.344-0.8 0.659-1.6 1.002-2.425 6.329-2.915 16.667-5.443 20.476-10.835zM692.659 319.010c3.522-7.74 19.388-6.914 21.478-13.286 7.102 1.6 22.624 3.947 28.781 9.133 0.601 0 1.231 0.026 1.833 0.052-5.413 5.753-18.013 11.068-29.583 10.552-7.503-2.141-15.006-4.308-22.509-6.45zM709.859 344.974c-0.573-0.826-1.146-1.677-1.718-2.528 5.556-4.902 15.636-5.211 20.476-10.835 7.217 1.6 14.433 3.199 21.679 4.799 2.348 1.445 4.725 2.889 7.102 4.308-5.040 5.031-16.753 10.061-26.776 9.829-6.93-1.857-13.832-3.715-20.762-5.572zM707.928 301.452c-1.317-2.993-0.43-2.219-0.716-4.953 6.444-2.27 12.916-4.515 19.359-6.759 3.752-2.838 21.937 2.373 28.036 5.805 2.377 1.393 1.26 0.284 2.635 2.528-5.269 4.566-17.584 9.778-26.805 9.829-7.532-2.167-15.006-4.308-22.509-6.45zM743.027 359.145c-8.849 2.838-17.24 7.095-25.803 8.204-7.217-1.857-14.433-3.741-21.65-5.598-0.601-0.851-1.146-1.677-1.747-2.528 6.186-2.528 12.343-5.056 18.529-7.611 3.437-3.38 27.721-0.439 30.671 7.533zM719.618 328.876c0.573 0.851 1.146 1.677 1.718 2.528-6.3 5.469-17.039 9.649-29.497 8.9-6.902-2.115-13.803-4.257-20.705-6.398 3.58-4.799 15.522-8.178 22.337-12.409 8.735 2.451 17.412 4.928 26.146 7.378zM677.194 294.737c9.307 2.735 18.615 5.495 27.95 8.256 1.804 5.934-14.691 12.383-23.311 13.209-6.128-3.173-19.789-7.224-26.175-6.553 0.057-1.109 0.115-2.193 0.143-3.276 6.644-3.225 17.526-5.676 21.392-11.635zM579.004 290l29.697 9.133c0.286 0.542 0.573 1.109 0.83 1.677-0.974 0.98-2.32 1.883-3.608 2.786l-32.218-9.133c2.176-1.29 4.095-2.735 5.298-4.463zM327.541 243.545c0.544 1.393 1.117 2.76 1.661 4.154-5.556 2.296-11.111 4.566-16.667 6.862-0.344 0.542-0.659 1.058-0.974 1.6 1.518 0.31 3.007 0.645 4.525 0.955 8.706-1.496 15.293-6.604 22.223-9.958 5.47-1.187 17.125 5.495 27.091 6.604l0.745 4.128c-4.954 2.296-9.88 4.592-14.834 6.914-0.601-0.026-1.203-0.052-1.804-0.077 1.174 0.593 2.377 1.187 3.551 1.78 8.248 1.496 16.696-7.843 24.972-9.881 21.049 6.114 42.040 12.254 63.060 18.368 0.286 0.826 0.544 1.677 0.83 2.502-5.556 2.554-11.14 5.108-16.696 7.662 1.174 0.877 2.377 1.728 3.551 2.58-0.63 0.258-1.231 0.516-1.861 0.774-16.868-3.818-33.735-7.636-50.574-11.455-33.019-9.004-61.944-17.93-96.395-27.63 2.663-5.056 14.462-9.958 20.476-11.661 5.613-2.322 18.013 4.050 27.12 5.779zM648.136 315.561c1.604-0.464 3.179-0.851 4.611-1.084 5.527-5.056 21.392 2.115 31.702 5.082-0.029 1.109-0.086 2.193-0.143 3.276-6.157 1.342-15.751 5.598-15.779 7.714-1.69 0.077-3.379 0.181-5.069 0.258v-10.913l-15.321-4.334zM273.662 246.77c1.203-0.232 2.434-0.464 3.666-0.697l1.747 1.703c-0.601-0.026-1.203-0.052-1.804-0.077-1.203-0.31-2.406-0.619-3.608-0.929zM350.766 208.183c-9.021 3.096-13.746 9.081-25.86 9.029-7.188-2.141-14.405-4.283-21.622-6.424-0.573-0.851-1.146-1.677-1.718-2.528 5.556-5.185 16.266-6.166 20.533-12.461 9.307 2.735 18.615 5.495 27.922 8.256 0.229 1.393 0.487 2.76 0.745 4.128zM389.542 218.425c-10.596 3.018-14.090 9.468-28.609 8.952-8.076-2.735-16.152-5.443-24.256-8.152 8.047-4.128 16.094-8.256 24.17-12.357 8.992 2.735 17.985 5.469 27.005 8.23 0.544 1.109 1.117 2.219 1.69 3.328zM362.751 204.468c-0.601 0.516-1.231 1.058-1.89 1.574 1.346-1.522 0.115-0.49 1.89-1.574zM418.515 199.643c1.776 1.548 0.659 0 1.718 2.528-5.899 6.243-18.013 10.474-27.75 10.603-8.391-2.735-16.782-5.443-25.173-8.178 5.985-3.199 18.070-10.939 26.92-13.080 8.105 2.709 16.18 5.418 24.285 8.127zM485.315 262.452c-23.712-7.043-47.424-14.060-71.136-21.103 0.63-0.8 1.26-1.6 1.919-2.399 5.098-5.469 15.092-5.418 19.588-11.687 8.477 2.735 75.976 20.252 78.21 26.237-9.25 3.663-15.35 9.391-28.581 8.952zM619.555 301.124c8.735 2.451 17.412 4.928 26.146 7.378 0.573 0.826 1.146 1.677 1.718 2.528-1.833 0.903-3.637 1.857-5.47 2.786l-30.872-8.771 8.477-3.921zM671.011 337.188c-0.057 0.826-0.086 1.625-0.115 2.477-2.635 1.109-5.069 2.193-7.446 3.251v-7.946l7.56 2.219zM680.969 338.336c2.348 2.167 14.118 6.682 24.313 7.327 0.573 1.109 1.146 2.219 1.69 3.328-5.355 4.541-16.696 8.642-25.86 9.029-5.871-1.574-11.77-3.173-17.641-4.747v-6.837c5.842-2.709 11.656-5.418 17.498-8.101zM469.261 300.495c-0.258-0.826-0.544-1.651-0.802-2.502 7.102-3.044 14.204-6.088 21.307-9.158 4.926-2.631 19.674 5.521 28.896 6.656 0.573 0.826 1.146 1.677 1.718 2.502-3.723 3.431-10.796 6.656-16.696 7.688-0.029 0.284-0.029 0.542-0.029 0.826-0.029 0.258-0.029 0.542-0.057 0.826 3.666 0.439 8.019-0.284 12.142-1.574l-8.878 4.953c-12.486-3.405-25.087-6.811-37.601-10.216zM532.327 296.475c-3.637-0.851-7.245-1.703-10.882-2.554-0.544-0.826-1.146-1.677-1.718-2.502 6.816-3.328 13.603-6.682 20.419-10.010 2.778-1.548 21.221 3.199 28.008 6.604 2.348 1.419 1.26 0.284 2.635 2.554l-4.124 1.883-18.042-5.108-16.295 9.133zM528.578 298.263c0.086 0.026 0.286 0.052 0.401 0.077l-1.461 0.826c0.315-0.31 0.802-0.593 1.060-0.903zM534.87 206.596c0.601-0.542 1.231-1.058 1.861-1.6-1.317 1.522-0.086 0.516-1.861 1.6zM476.42 280.212l-34.279-8.462c-0.573-0.826-1.146-1.677-1.718-2.502 6.501-3.070 12.973-6.166 19.474-9.236 6.902-3.921 23.827 4.618 31.616 6.733 0.601 0.826 1.146 1.677 1.747 2.502-5.556 2.838-11.169 5.676-16.724 8.513-0.63-0.026-1.231-0.052-1.833-0.052 1.518 0.31 3.007 0.645 4.525 0.955-0.945 0.516-1.861 1.032-2.807 1.548zM442.107 272.578c0.601 0.542 1.174 1.109 1.747 1.677-0.888-0.026-1.804-0.052-2.721-0.077 0.344-0.516 0.63-1.058 0.974-1.6zM457.293 209.898l0.745 4.128c-8.305 3.586-14.806 9.468-25.889 9.855l-26.089-8.204c7.761-4.412 15.522-8.823 23.283-13.235 9.307 2.502 18.643 4.979 27.95 7.456zM367.365 202.969c0 0.258 0 0.542-0.029 0.8-1.203-0.026-2.434-0.077-3.637-0.103 1.231-0.232 2.463-0.464 3.666-0.697zM321.052 222.834c-9.336 2.864-13.775 8.9-25.86 9.029-6.73-3.509-17.383-2.554-23.368-8.101-0.601-0.026-1.231-0.052-1.833-0.077 20.591-12.177 20.705-8.617 48.512-5.856 0.859 1.677 1.69 3.328 2.549 5.005zM344.824 244.084l-6.329-1.032c4.067-1.754 5.756 0.335 6.329 1.032zM296.148 207.29c1.203 0.026 2.406 0.052 3.637 0.103l0.83 1.677c-0.888-0.026-1.804-0.052-2.721-0.103-0.573-0.568-1.146-1.109-1.747-1.677zM292.414 209.633c1.69-1.6 0-0.619 2.778-1.574 0 0.284 0 0.542-0.029 0.851-0.916 0.232-1.833 0.464-2.749 0.722zM349.271 246.679c-0.573-0.826-1.146-1.651-1.718-2.502 5.384-5.392 16.61-5.908 20.533-12.486 6.759 2.477 17.641 5.882 27.005 8.23 0.229 1.393 0.515 2.76 0.745 4.128-9.909 2.657-16.409 7.456-26.748 8.178-6.587-1.832-13.202-3.689-19.817-5.547zM436.751 269.947c-20.132-5.547-40.265-11.119-60.397-16.666 11.341-3.173 21.020-3.767 29.583-11.377 15.321 4.592 30.642 9.184 45.935 13.751 0.573 0.851 1.146 1.677 1.718 2.502-5.699 1.986-15.035 5.83-18.615 10.087 0 0 4.324 1.832 1.776 1.703zM306.077 233.024c-0.601-0.026-1.203-0.026-1.804-0.052 8.276-2.373 20.705-3.947 25.946-11.506 8.248 2.941 17.125 3.792 27.005 8.256 0.601 0 1.203 0.026 1.833 0.052-0.057 1.084-0.086 2.167-0.143 3.276-8.19 3.844-14.577 9.21-26.776 9.004-8.677-3.018-17.355-6.011-26.060-9.029zM410.559 240.421c1.203-0.232 2.434-0.464 3.666-0.722-0.029 0.284-0.029 0.568-0.029 0.826l-3.637-0.103zM426.473 229.436c-9.937 2.812-14.319 8.539-27.635 8.152l-29.755-8.307c11.827-3.818 20.39-5.547 30.557-12.177l26.089 8.204c0.229 1.367 0.487 2.76 0.745 4.128zM401.527 214.71c-0.286-0.568-0.573-1.109-0.83-1.677 1.804 0.335 3.608 0.645 5.413 1.006-1.518 0.206-3.064 0.439-4.582 0.671zM748.339 386.38c-2.491-0.748-1.546-0.49-3.666 0.697 1.231-0.232 2.463-0.464 3.666-0.697v0zM817.27 394.301c-6.558-2.683-13.145-5.34-19.731-8.023-6.844 1.109-13.002 1.471-16.696 7.688 14.834-2.554 18.271-4.205 36.427 0.335v0zM821.881 396.932c1.088-0.232 2.205-0.387 3.322-0.542 6.587 0.697 17.985 2.993 20.906 6.192 0.315 0 0.63 0.026 0.916 0.026-4.038-6.269-13.288-7.404-21.822-6.217-0.859-0.103-1.89-0.258-2.52-0.284-0.086 0.361-0.63 0.49-0.802 0.826-4.525 1.006-8.735 2.451-11.255 4.541 6.186 0 9.88-1.754 11.255-4.541v0zM857.907 403.769c-5.384 1.084-9.995 2.683-13.002 6.166 5.613-1.213 9.995-2.348 13.002-6.166v0zM865.067 407.277c0.344-1.084 0.687-2.167 1.031-3.251-1.203-0.026-2.434-0.077-3.637-0.103-0.916 0.232-1.833 0.49-2.749 0.722-0.029 0.284-0.029 0.542-0.029 0.826 4.439 0.671 3.809-0.129 5.384 1.806v0zM869.563 408.232c1.861-0.206 3.666-0.413 5.527-0.645-2.434-0.619-4.811-1.238-7.217-1.857-0.344-0.026-0.63-0.026-0.916-0.026 1.088 1.471 1.346 1.393 2.606 2.528v0zM879.529 410.192c0.315 0 0.601 0.026 0.888 0.026-1.747-1.496-0.086-1.78-2.663-0.903 0.573 0.284 1.174 0.593 1.776 0.877v0zM888.349 394.068c0.029-0.284 0.029-0.542 0.029-0.826-4.21-0.593-18.557 5.237-21.307 9.184 6.787-2.244 13.546-4.515 20.276-6.759 0.344-0.542 0.687-1.058 1.002-1.6v0zM891.041 394.971c0.315 0 0.63 0.026 0.916 0.026-1.060-2.477 0.086-0.98-1.718-2.528 0.286 0.851 0.544 1.677 0.802 2.502v0zM902.812 396.984c1.518-0.232 3.064-0.439 4.582-0.671-4.525-0.955-9.050-1.935-13.546-2.889-0.344 0.516-0.63 1.058-0.974 1.6 3.293 0.645 6.615 1.316 9.937 1.961v0zM910.028 398.841c-0.229-0.361 0.573-0.671-1.747-1.703-0.029 0.284-0.029 0.542-0.029 0.826 0.573 0.31 1.174 0.593 1.776 0.877v0zM906.191 378.202l-3.522-0.903c-0.229 0.464-0.859 0.826-1.174 1.238-8.878 1.135-16.495 3.999-19.245 8.771 5.642-1.651 15.522-4.179 19.245-8.771 1.489-0.181 3.093-0.232 4.697-0.335 10.854 2.812 21.707 5.598 32.533 8.41-5.527-6.372-19.646-9.107-32.533-8.41v0zM941.444 387.516c0.315 0.026 0.601 0.026 0.888 0.052-0.573-0.568-1.146-1.135-1.747-1.703 0.286 0.542 0.573 1.109 0.859 1.651v0zM971.972 375.364c-6.214-7.404-31.587-9.752-42.327-12.822-0.315 0-0.573 0-0.888-0.026-0.029 0.542-0.057 1.109-0.086 1.651 13.832 3.715 27.664 7.43 41.468 11.145 0.63 0.026 1.231 0.026 1.833 0.052v0zM970.11 353.152c-11.369-3.354-17.355-5.34-22.595-5.83l-5.355-1.6c0.057 0.542-0.83 1.187-1.317 1.78-4.754 0.8-10.367 2.889-19.989 6.579l-1.002 2.425c5.756-0.748 17.813-5.237 20.992-9.004 2.291-0.387 4.439-0.387 6.673-0.181 19.817 5.882 39.663 11.764 59.481 17.672 7.36-2.167-33.42-10.81-36.885-11.841v0zM1040.244 352.92c0.344-0.542 0.687-1.084 1.002-1.6-22.681-13.88-31.559-5.985-52.808-0.877-1.203 2.425-0.945 1.651-1.060 4.102 7.99-3.328 16.009-6.63 24.056-9.932 6.844-1.29 26.891 7.043 28.81 8.307v0zM952.298 342.781c0.286 0.542 0.573 1.109 0.83 1.651 7.217-2.090 21.536-6.166 21.335-9.984 7.159 0.464 22.681 3.534 24.371 5.676 0.916 0.026 1.833 0.052 2.749 0.077-10.023-13.957-37.573-5.16-49.286 2.58v0zM962.006 326.657c-0.286 0-0.601 0-0.888-0.026 0 0.284-0.029 0.542-0.029 0.826 0.859 0.851 1.747 1.703 2.635 2.528 1.489 0.052 3.036 0.103 4.553 0.155-3.895-4.102-1.833 0.103-6.272-3.483v0zM954.789 324.8c-1.804-0.077-3.637-0.129-5.413-0.181 2.95 1.187 5.957 2.373 8.935 3.56 0.63 0.026 1.231 0.052 1.833 0.077-1.632-2.528-2.291-2.296-5.355-3.457v0zM945.826 322.039c-0.029 0.284-0.029 0.568-0.029 0.826 0.258 0.568 0.544 1.109 0.83 1.677 1.518-0.232 3.036-0.464 4.553-0.671l-5.355-1.832zM934.084 342.188c0.286 0.826 0.544 1.651 0.83 2.477l0.916 0.052c-0.601-0.851-1.174-1.703-1.747-2.528v0zM917.99 334.293c6.873-1.651 19.588-5.289 26.862-11.455-8.448 0.464-21.851 5.108-26.862 11.455v0zM907.050 310.997l-4.525-0.155c-0.057 1.084-0.086 2.193-0.143 3.276 2.463-1.651 26.719 2.786 30.671 7.533 0.029-0.826 0.086-1.651 0.086-2.451-8.677-2.735-17.383-5.469-26.089-8.204v0zM879.329 320.775c0.143 3.276-0.372 0.722 0.802 3.302 6.014-2.606 18.385-6.527 21.45-12.435l-22.252 9.133zM892.588 308.056v0.026c-0.286-0.284-0.573-0.593-0.859-0.851-0.344 0.542-0.687 1.084-0.974 1.6l1.833-0.748c-0.029 0.542-0.029 1.084-0.057 1.625 0.315-0.258 0.63-0.516 0.945-0.774-0.286-0.284-0.573-0.568-0.888-0.851v-0.026zM889.037 305.502c-3.265 1.367-1.088-0.516-2.835 2.373 0.63 0.284 1.203 0.568 1.804 0.877 0.601 0.026 1.231 0.026 1.804 0.052-0.573-0.284-1.174-0.568-1.776-0.877l1.002-2.425zM875.52 301.787c-2.234 0.826-3.122 0.851-4.639 2.322 3.666-0.516 7.618 0.748 10.825 2.786 0.888 0.052 1.833 0.077 2.721 0.103-1.747-4.489-7.933-2.709-8.906-5.211v0zM851.378 337.131c8.162-2.477 12.515-6.966 21.307-9.184 8.133 1.625 16.266 3.251 24.399 4.876 0.029-0.284 0.029-0.542 0.029-0.826-15.665-3.973-37.286-10.448-45.735 5.134v0zM837.575 317.008c-0.172 0.516-0.945 1.058-1.432 1.6-7.102 0.722-13.975 2.915-20.762 7.559l0.83 1.651c6.157-1.032 16.467-5.34 19.932-9.21 1.461-0.155 2.892-0.49 4.382-0.464 7.99 3.173 20.992 5.856 25.889 7.146 0-0.258 0.029-0.542 0.029-0.8-9.365-4.205-17.841-6.321-25.917-6.346-0.945-0.387-2.148-0.748-2.95-1.135v0zM779.325 315.976c-0.029 0.542-0.057 1.109-0.057 1.651 26.92-3.302 17.813-13.209 50.145-1.703 0.344-0.516 0.659-1.058 0.974-1.6-18.672-8.256-36.714-10.784-51.061 1.651v0zM765.866 333.623c0 0.542-0.029 1.084-0.057 1.625 6.988-1.135 19.216-5.34 20.39-9.184 9.622 2.477 19.273 4.953 28.867 7.456 0.315 0.026 0.63 0.026 0.916 0.026 0-0.284 0.029-0.542 0.029-0.826-0.258-0.826-0.515-1.651-0.802-2.477-14.118-6.759-36.742-7.507-49.343 3.38v0zM780.499 356.222c-1.203 2.399-0.945 1.651-1.060 4.076 6.501-1.703 17.097-5.031 20.419-10.036 4.353 1.393 19.445 6.243 25.574 5.753 0.83 0.568 2.033 1.109 2.377 1.703-0.258-0.568-0.573-1.109-0.859-1.677-0.344 0.103-1.088-0.052-1.518-0.026-5.699-3.973-20.591-7.043-24.6-7.353-6.701-1.316-12.515 6.011-20.333 7.559v0zM833.68 393.991c10.481-2.167 22.252-6.063 29.526-8.926-9.622-1.367-25.774 0.722-29.526 8.926v0zM814.75 365.509c-0.057 1.367-0.115 2.735-0.172 4.102 9.765-3.87 12.744-6.579 21.364-10.010 1.575-0.619 10.453 3.767 15.407 2.115-4.811-1.238-9.622-2.477-14.433-3.741l-22.166 7.533zM851.178 342.858c-0.286-1.084-0.544-2.193-0.802-3.302-9.937-1.961-19.903-3.896-29.841-5.856-6.157 2.812-12.343 5.624-18.557 8.436-0.057 1.367-0.115 2.735-0.143 4.076 5.384-3.276 14.605-4.953 20.419-10.010 10.081-0.103 23.54 4.566 28.924 6.656v0zM836.171 353.049c0.286 0.826 0.573 1.651 0.83 2.502 0.286 0 0.601 0 0.916 0.026 0.716-2.812 14.405-6.94 19.474-8.436 0.315-1.342 0.687-2.683 1.060-4.050-7.417 3.328-14.834 6.656-22.28 9.958v0zM880.13 371.649c-5.126-8.642-28.351 0.516-32.16 6.372 8.591-2.889 21.278-11.068 32.16-6.372v0zM881.075 370.050c0 0.284 0 0.542-0.029 0.826 0.601 0.284 1.203 0.568 1.776 0.877 0.63 0.026 1.231 0.026 1.833 0.052-1.174-0.593-2.377-1.161-3.58-1.754v0zM859.425 364.452c0.573 0.826 1.146 1.677 1.718 2.502-0.401-1.625 1.088-0.98-1.718-2.502v0zM861.115 344.819c0 0 21.077 5.495 23.368 8.127 0.601-0.542 1.26-1.058 1.861-1.6-5.47-3.612-17.555-5.237-26.089-8.204-0.344 0.542-0.63 1.084-0.974 1.625 0.63 0 1.203 0.026 1.833 0.052v0zM900.664 334.577c-0.859-0.851-1.747-1.703-2.606-2.528 0.544 0.826 1.146 1.651 1.718 2.502 0.286 0 0.601 0 0.888 0.026v0zM886.517 347.244c4.725-3.070 15.923-6.295 22.28-9.958 8.104 2.167 16.209 4.334 24.313 6.527-6.701-11.712-44.188-7.069-46.594 3.431v0zM905.532 373.275c3.837-1.238 19.302-4.463 21.392-10.81-6.787 2.528-13.546 5.056-20.333 7.559-0.344 1.084-0.687 2.167-1.060 3.251v0zM887.376 371.882c3.236 1.703 5.212 1.419 7.131 4.334 0.286 0 0.601 0 0.916 0.026 0.315-0.8 0.659-1.625 1.002-2.425-3.036-0.645-6.014-1.29-9.050-1.935v0zM919.651 362.233c-0.258-1.109-0.515-2.193-0.802-3.302-13.402-3.689-40.15-10.19-47.567 5.056 21.536-5.237 26.375-11.764 48.369-1.754v0zM878.441 391.282c0.888 0.026 1.804 0.052 2.721 0.103 0.029-0.284 0.029-0.568 0.057-0.826-0.401-0.387-1.346-0.464-1.89-0.748 0.029-0.052 0.057-0.103 0.086-0.129-0.086 0-0.258 0-0.344 0.026-3.265-1.677-8.42-2.27-13.202-3.741 4.038 4.076 10.31 4.025 13.202 3.741 0.086 0.026 0.2 0.052 0.258 0.103-0.315 0.49-0.573 0.98-0.888 1.471v0zM799.458 383.878l0.83 1.677c21.049-5.779 24.285-11.222 47.51-2.606-3.093-4.36-26.118-7.327-26.118-8.204-5.126-1.006-18.156 5.598-22.223 9.133v0zM517.891 197.845c1.203 0.052 2.406 0.077 3.637 0.129 0-0.258 0-0.542 0.029-0.826-1.518-0.335-3.007-0.645-4.525-0.955 0.315 0.542 0.544 1.109 0.859 1.651v0zM588.139 218.123c0.916 0.026 1.833 0.052 2.749 0.077-1.203-0.593-2.377-1.161-3.58-1.754l0.83 1.677zM291.738 180.070c-0.029 0.542-0.057 1.109-0.086 1.651 0.888-1.445 0.916-0.181 0.086-1.651v0zM181.024 238.942c0.315 0.258 0.601 0.568 0.888 0.826 0.315 0.026 0.601 0.026 0.916 0.026 0.029-0.8 0.057-1.625 0.086-2.425-0.63 0.516-1.26 1.032-1.89 1.574v0zM664.889 354.21c7.761 2.451 15.608 4.876 23.368 7.327-0.029 1.084-0.086 2.167-0.115 3.276l-9.221 2.967c-0.344 0.542-0.63 1.084-0.974 1.625 1.518 0.593 2.978 1.187 4.467 1.78 10.882-8.152 29.125-8.281 38.26 0.387-3.723 1.78-7.417 3.586-11.111 5.392-0.029 0.258-0.029 0.542-0.029 0.8 1.776 0.619 3.58 1.213 5.355 1.832 5.069-0.026 13.488-3.276 16.724-7.688 7.789 2.167 15.608 4.308 23.426 6.475 0.286 0.284 0.573 0.568 0.888 0.851-1.919 4.257-4.267 3.638-6.673 7.172 7.045-0.542 8.82-4.179 12.944-5.34 8.162 1.909 16.295 3.792 24.399 5.701 0-0.284 0.029-0.542 0.029-0.826-8.076-2.709-16.209-5.443-24.285-8.152 7.074-4.076 18.471-4.437 23.197-10.758 8.591 1.109 14.634 3.070 26.146 7.404 0.601-0.516 1.26-1.058 1.861-1.6-0.258-0.826-0.515-1.651-0.802-2.477-9.651-1.935-19.302-3.87-28.924-5.83-7.933 0.464-17.269 11.093-26.891 12.28-8.448-1.909-16.868-3.818-25.287-5.727l-1.69-4.154c19.474-4.515 26.862-9.365 48.341-0.929 0.057-1.367 0.115-2.735 0.172-4.102-11.455-2.554-22.882-5.082-34.337-7.636 0.029-0.826 0.057-1.651 0.086-2.451 5.642-4.618 16.094-5.056 20.447-10.861 9.651 2.502 19.245 5.005 28.896 7.482 0-0.284 0-0.542 0.029-0.826-4.525-4.67-22.968-8.797-29.755-8.307 0.945-1.058 1.89-2.141 2.864-3.199-3.15-1.6-1.117 0.439-2.635-2.528-9.135 3.534-29.096-0.258-36.198-6.088 7.389-3.018 14.806-6.088 22.223-9.133 4.582-3.457 23.197 3.483 29.812 6.682 0.2-2.193 0.086-0.49 1.031-3.251-11.255-5.263-30.585-5.418-37.802-12.667 5.756-5.16 16.982-5.289 21.421-11.635 11.598 2.451 15.779 4.128 27.034 8.23 0.888 0.026 1.776 0.052 2.692 0.077-2.549-6.45-19.13-7.662-26.92-9.855-21.307-6.424-42.642-12.822-63.948-19.246 9.88-4.463 18.786-7.404 26.92-13.106 46.565 13.235 93.13 26.469 139.667 39.678-1.489-2.090-58.249-21.206-88.978-30.468v-0.206c-0.859-0.181-1.69-0.361-2.52-0.542-7.417-2.193-13.059-3.741-15.522-4.128 0 0.258-0.029 0.542-0.029 0.8l10.825 2.812c-2.864 1.754-16.782-3.122-17.183-3.818 1.833 0.052 3.637 0.103 5.47 0.181 0-0.284 0-0.568 0.029-0.826-24.371-3.405-48.112-18.394-68.616-16.124-0.515-2.709-1.031-1.084 1.89-2.373-3.036-2.038-35.31-9.649-42.499-7.894-0.573-0.568-1.146-1.135-1.747-1.703 4.267 0.129 8.477 0.258 12.744 0.387-8.076-2.425-16.209-4.876-24.313-7.327 1.174 0.851 2.348 1.703 3.551 2.58-11.741-2.193-18.471-6.321-30.728-6.708 6.787-2.786 12.543 0.98 19.961 2.27 0-0.284 0.029-0.542 0.029-0.826-11.398-3.096-22.853-6.192-34.251-9.287l4.439 2.606-1.833 0.774c-4.983-2.502-18.958-8.152-27.091-6.604-1.203-2.373 1.575-1.909 4.668-2.322-8.82-5.237-30.614-9.855-41.553-9.494 1.346-1.522 0.086-0.516 1.89-1.6-5.098-1.78-10.195-3.586-15.264-5.392 0.859 0.593 1.747 1.161 2.635 1.728 0 0.258 0 0.542-0.029 0.826-8.706-1.909-17.469-3.844-26.204-5.753 4.553-2.193 10.625 0.103 15.407 2.115-2.835-3.973-44.532-13.802-53.209-13.957 0.63-0.284 1.231-0.516 1.861-0.774 0.344-0.542 0.659-1.084 0.974-1.625-11.398-3.070-22.824-6.166-34.251-9.262 6.272 2.373 12.572 4.773 18.844 7.146 0.63 0.026 1.231 0.052 1.833 0.052-0.029 0.284-0.029 0.568-0.029 0.826-9.021-2.193-18.042-4.386-27.091-6.579 1.861-0.774 3.723-1.522 5.556-2.296-5.985-1.548-12.028-3.122-18.013-4.67 0.573 0.568 1.146 1.135 1.747 1.703-8.105-0.542-16.524-6.114-27.979-6.63 0.916-0.774 1.861-1.574 2.807-2.373-12.314-3.122-24.657-6.243-36.971-9.365-1.26 0.774-2.52 1.574-3.752 2.348l-1.861 0.748c12.629 2.167 17.326 4.824 28.867 7.482-0.057 1.367-0.115 2.735-0.172 4.102 0.573 5.263-15.751 9.726-20.533 13.286 2.119-0.206 4.267-0.413 6.386-0.619-3.952 0.722-7.933 1.393-11.913 2.090-8.076 4.412-16.123 8.797-24.199 13.183-14.92 3.767-25.917-11.558-37.029-8.539-0.601-0.026-1.203-0.052-1.804-0.052-0.029 0.542-0.029 1.084-0.057 1.625 6.358 1.522 16.753 8.384 26.118 7.404 0.544 1.651 1.088 3.302 1.632 4.953-15.808 8.256-31.616 16.511-47.424 24.767-11.341 4.128-28.581-7.275-36.084-9.339-0.315 0.516-0.659 1.084-0.945 1.6-0.63 0-1.231-0.026-1.833-0.052 3.895 5.134 17.956 7.869 26.060 9.029 0.258 1.367 0.515 2.735 0.745 4.128-4.954 2.58-9.909 5.134-14.863 7.714l-1.833-0.052c2.406 0.903 4.811 1.806 7.188 2.683 4.84-5.83 14.577-5.908 18.729-12.512 9.565 3.018 19.187 6.063 28.781 9.107-0.029 1.084-0.086 2.167-0.115 3.276-6.501 3.070-13.002 6.14-19.502 9.21-5.813 1.238-65.724-17.053-69.389-19.4-0.916 0.232-1.833 0.49-2.778 0.722-0.63 0.826-1.26 1.6-1.919 2.399 8.706 2.735 17.412 5.469 26.118 8.204 0.573 0.851 1.146 1.677 1.718 2.528-2.749 1.754-2.721 1.058-3.837 4.799-1.833-1.986-0.458 0.077-0.802-2.502-1.747 1.084-1.518 0.748-2.835 2.399-0.888-0.052-1.804-0.077-2.721-0.103 1.776 1.161 3.551 2.322 5.327 3.457 4.238-4.050 11.885-4.979 13.116-9.442 7.131 2.683 16.81 7.559 27.922 8.281 0.573 0.826 1.146 1.677 1.718 2.502-3.666 3.715-4.496 4.179-10.224 5.418-0.315 0.542-0.659 1.084-0.974 1.6 1.833 0.077 3.666 0.129 5.47 0.181 0.63 0.052 12.085-3.509 13.947-7.765 9.622 2.76 19.245 5.521 28.838 8.307-1.203 4.463-3.58 5.547-8.448 6.269-0.63 1.084-1.289 2.167-1.947 3.225 1.546 0.052 3.036 0.103 4.582 0.155 0.229 0.052 11.627-4.102 13.947-7.765 9.594 2.76 19.216 5.521 28.838 8.281 0.286 0.568 0.573 1.109 0.859 1.677-3.122 1.548-6.214 3.096-9.307 4.618-0.315 0.542-0.659 1.084-0.974 1.625 0.286 0.542 0.573 1.109 0.859 1.651 7.188-0.103 10.166-5.908 19.416-7.585l26.089 8.204c0 0.258-0.029 0.542-0.029 0.826-4.038 2.322-8.076 4.67-12.085 6.991-0.029 0.284-0.029 0.542-0.057 0.826 7.904-0.619 10.854-3.147 19.359-5.959 4.267-2.193 21.879 4.799 28.896 6.656-3.236 5.418-6.501 6.45-13.059 7.791 0 0.284 0 0.542-0.029 0.826 7.646-0.774 16.581-0.361 21.278-8.359 3.723 2.786 20.218 4.257 24.256 8.952 2.32 1.084 1.461-0.748 2.635 2.554l-7.474 4.695c-0.916 0.232-1.833 0.49-2.749 0.722 0.601 0.026 1.203 0.052 1.804 0.052 5.298 3.715 17.612-0.026 20.276-5.908 7.045 3.405 16.324 7.069 27.005 8.23-0.029 1.084-0.086 2.193-0.115 3.276-3.379 1.264-6.787 2.502-10.166 3.767-0.029 0.31-0.029 0.568-0.029 0.826-0.029 0.284-0.029 0.568-0.057 0.826 0.916 0.284 1.804 0.619 2.721 0.903 5.813-0.851 13.431-4.076 15.808-8.539 3.837 1.213 7.704 2.425 11.541 3.638l-69.647 39.007-357.973-89.779 329.621-284.454c0 0 15.923-18.214 63.776 0l778.29 273.928c0 0 48.885 15.324 14.892 28.739 0-1.909-418.914 174.32-418.914 174.32l-180.762-45.328v-53.635c0.487-0.284 0.945-0.542 1.432-0.826v0zM119.092 758.58l14.892-295.005 88.777 14.86-14.348 291.651zM203.075 416.802c-11.341 4.979-25.946-1.006-32.618-13.364-6.701-12.383-2.95-26.418 8.391-31.397 11.312-4.979 25.946 1.006 32.618 13.364 6.673 12.383 2.95 26.418-8.391 31.397zM263.693 775.826l10.882-287.833 89.407 15.324-10.968 283.989zM335.792 445.534c-11.341 4.979-25.946-1.006-32.647-13.364-6.673-12.357-2.921-26.418 8.391-31.397 11.341-4.979 25.946 1.006 32.618 13.364 6.701 12.383 2.95 26.418-8.362 31.397zM663.463 571.882v-0.077l65.38 11.016-2.377 249.987-69.132-8.513 0.372-14.421 5.756-1.496zM704.294 533.499c-10.453 4.618-23.97-0.929-30.184-12.357-6.186-11.429-2.663-24.431 7.789-29.049 10.481-4.592 23.998 0.955 30.156 12.383 6.186 11.429 2.721 24.431-7.761 29.023zM592.621 390.89c7.331 10.061 19.961 14.86 30.242 10.345 1.117-0.49 1.776-1.419 2.749-2.064l37.859 9.494v9.752l-240.414-60.755 11.455-6.424 158.109 39.652zM583.365 341.811c0.601-0.516 1.26-1.058 1.861-1.574-1.776 1.084-0.515 0.052-1.861 1.574zM593.704 310.131c-0.63 0.542-1.26 1.058-1.89 1.6 2.807-0.929 1.088 0.052 2.807-1.548-0.315-0.026-0.63-0.026-0.916-0.052zM562.088 326.384c16.324 4.928 32.389 4.386 45.105 12.099 3.923 0.103 7.847 0.232 11.827 0.361-0.487-2.425-1.575-0.49 0.086-2.451 4.926-2.064 9.88-4.076 14.806-6.114 0.057-1.084 0.115-2.167 0.143-3.276-9.336-2.76-18.615-5.521-27.922-8.256-7.131 4.566-17.326 7.043-24.084 9.907-0.888-0.31-1.776-0.619-2.692-0.903 0.315-0.542 0.659-1.084 0.974-1.6 6.873-1.496 13.574-4.050 16.753-9.339-10.94-1.522-26.404-10.887-32.59-5.108-8.305 2.219-12.801 6.837-22.108 5.856 0-0.258 0.029-0.542 0.029-0.826 0.029-0.258 0.029-0.542 0.029-0.8 5.584-2.296 11.14-4.592 16.667-6.888-4.725-6.063-23.111-8.875-30.127-10.706l3.351-1.857c7.217 1.677 14.405 3.354 21.622 5.031 1.203 0.052 2.434 0.077 3.637 0.129-1.174-0.593-2.377-1.187-3.58-1.754 0.029-0.284 0.029-0.542 0.057-0.826 0-0.258 0-0.542 0.029-0.8 4.181-1.961 8.391-3.87 12.572-5.805l7.045 2.012c-4.582 2.76-10.567 4.747-15.178 6.372-0.029 0.542-0.057 1.109-0.057 1.651 0.859 0.568 1.747 1.135 2.663 1.703 6.587 2.141 13.202 4.257 19.789 6.372 9.737 0.542 18.872-2.709 25.001-6.966l5.155 1.445c-4.897 2.296-9.823 4.541-14.72 6.837 4.811 5.521 15.923 4.773 22.423 8.9 4.267 0.129 8.505 0.258 12.772 0.387v-0.8c-1.060-0.645-1.117 0.284-0.888-0.851 3.752-1.909 7.503-3.818 11.283-5.701l6.186 1.728c-5.413 1.574-11.226 4.334-13.947 7.378 2.377 0.877 4.783 1.78 7.188 2.683 5.699 1.806 11.398 3.638 17.097 5.443 1.661-0.077 3.322-0.155 4.983-0.258v4.154c-6.787-2.012-13.603-3.999-20.39-6.011-6.844 3.921-14.376 7.946-23.168 9.932 0.601 0.284 1.203 0.568 1.804 0.877 4.181 4.979 14.777 4.437 20.648 8.023 8.62 0.181 14.72-2.064 21.106-4.85v3.534c-1.919 0.877-3.78 1.754-5.67 2.631l2.577 3.354c1.060 0.284 2.062 0.542 3.093 0.826v1.78c-4.496 2.58-9.021 5.134-13.517 7.74-2.692-0.645-5.384-1.264-8.104-1.909 0-0.258 0.029-0.542 0.029-0.8 6.415-0.387 11.026-2.373 14.806-5.289-0.315-0.568-0.601-1.109-0.888-1.677-7.331-1.006-23.34-6.321-22.481-7.275-4.439 1.367-13.832 6.398-14.892 8.565-2.406-0.619-4.811-1.264-7.217-1.857 0.286-0.542 0.63-1.084 0.974-1.625 3.895-0.077 8.906-0.619 11.169-6.217-8.706-2.709-17.412-5.469-26.118-8.204-2.807 5.727-8.906 4.386-12.2 9.468-2.549-0.98-1.289-0.748-3.608-0.929-3.293-1.574-3.122-0.722-4.41-4.257 4.84-0.722 7.045-2.399 10.224-4.592l-0.859-1.651-24.313-7.327c-4.668 2.838-9.307 5.701-13.975 8.591-1.174-0.877-2.377-1.728-3.551-2.58 0.258 0.826 0.544 1.651 0.802 2.477-1.489-0.593-3.007-1.187-4.467-1.78 0-0.258 0-0.542 0.029-0.826 5.498-0.619 10.281-2.631 12.085-6.991-6.1-1.109-23.913-9.107-26.146-6.579-5.298 2.786-10.31 6.011-17.584 6.837-0.172-1.935 0.258-1.006-0.773-3.302 3.723-1.522 7.417-3.044 11.111-4.566-0.286-0.568-0.573-1.109-0.859-1.677-4.84-1.522-9.708-3.044-14.577-4.566l2.721-1.522c19.044 5.185 37.802 10.371 55.214 15.66zM527.516 299.158c-2.635 2.76-6.93 5.108-11.77 6.604l11.77-6.604zM492.81 851.483l132.908-36.763v3.431l-132.908 34.415zM657.701 809.875l-28.094 7.275 0.83-57.969 13.889 1.316v-306.486l-9.422-1.78 0.401-26.495 28.151 6.888v139.26zM598.606 356.475c11.341-4.979 25.946 1.006 32.647 13.389 6.043 11.145 3.207 23.296-5.642 29.307l-32.991-8.281c-0.773-1.058-1.776-1.857-2.406-3.018-6.673-12.357-2.95-26.418 8.391-31.397zM560.321 752.597l5.327-313.348 69.246 12.977-4.467 306.95zM831.458 846.142l-69.103-7.095-2.663-249.987 66.984 10.81zM808.106 555.819c-10.481 4.618-23.998-0.929-30.184-12.357-6.186-11.455-2.692-24.431 7.789-29.049 10.453-4.592 23.97 0.955 30.156 12.383s2.692 24.431-7.761 29.023z" />
<glyph unicode="&#xe909;" glyph-name="calendarioEventi" horiz-adv-x="1052" d="M233.046 388.481c4.589 0 9.178 1.75 12.674 5.233l76.956 76.678v-403.414h-53.778c-9.913 0-17.926-7.984-17.926-17.861s8.013-17.861 17.926-17.861h143.407c9.913 0 17.926 7.984 17.926 17.861s-8.013 17.861-17.926 17.861h-53.778v446.532c0 2.322-0.466 4.644-1.38 6.823-1.811 4.376-5.306 7.859-9.698 9.663-4.374 1.804-9.304 1.804-13.695 0-2.205-0.911-4.195-2.233-5.844-3.876l-107.538-107.15c-7.009-6.984-7.009-18.272 0-25.256 3.496-3.483 8.085-5.233 12.674-5.233zM549.74 174.14c0-78.783 64.337-142.884 143.41-142.884s143.41 64.101 143.41 142.884c0 54.832-31.192 102.483-76.796 126.434 35.297 22.147 58.87 61.208 58.87 105.752 0 68.924-56.306 125.023-125.484 125.023s-125.484-56.1-125.484-125.023c0-44.544 23.573-83.605 58.87-105.752-45.604-23.951-76.796-71.603-76.796-126.434zM603.518 406.326c0 49.241 40.209 89.302 89.631 89.302s89.631-40.061 89.631-89.302c0-49.241-40.209-89.302-89.631-89.302s-89.631 40.061-89.631 89.302zM693.15 281.302c59.318 0 107.558-48.063 107.558-107.163s-48.24-107.163-107.558-107.163c-59.318 0-107.558 48.063-107.558 107.163s48.24 107.163 107.558 107.163zM470.34 960c-8.963 0-16.207-7.984-16.207-17.86s7.245-17.86 16.207-17.86c21.102 0 38.93-14.967 45.64-35.721h33.76c-7.536 40.704-40.275 71.442-79.4 71.442zM589.849 960c-8.963 0-16.207-7.984-16.207-17.86s7.245-17.86 16.207-17.86c21.102 0 38.93-14.967 45.64-35.721h33.76c-7.536 40.704-40.275 71.442-79.4 71.442zM685.455 960c-8.963 0-16.207-7.984-16.207-17.86s7.245-17.86 16.207-17.86c21.102 0 38.93-14.967 45.64-35.721h33.76c-7.536 40.704-40.275 71.442-79.4 71.442zM777.859 888.14c1.197-5.803 1.831-11.821 1.831-17.965 0-49.529-40.671-89.825-90.662-89.825-10.027 0-18.132 8.030-18.132 17.965s8.105 17.965 18.132 17.965c29.991 0 54.397 24.181 54.397 53.895 0 6.342-1.306 12.324-3.336 17.965h-71.024c1.197-5.803 1.831-11.821 1.831-17.965 0-49.529-40.671-89.825-90.662-89.825-10.027 0-18.132 8.030-18.132 17.965s8.105 17.965 18.132 17.965c29.991 0 54.397 24.181 54.397 53.895 0 6.342-1.306 12.324-3.336 17.965h-71.024c1.197-5.803 1.831-11.821 1.831-17.965 0-49.529-40.671-89.825-90.662-89.825-10.027 0-18.132 8.030-18.132 17.965s8.105 17.965 18.132 17.965c29.991 0 54.397 24.181 54.397 53.895 0 6.342-1.306 12.324-3.336 17.965h-71.024c1.197-5.803 1.831-11.821 1.831-17.965 0-49.529-40.671-89.825-90.662-89.825-10.027 0-18.132 8.030-18.132 17.965s8.105 17.965 18.132 17.965c29.991 0 54.397 24.181 54.397 53.895 0 6.342-1.306 12.324-3.336 17.965h-102.121c7.507 20.875 27.452 35.93 51.061 35.93s43.554-15.055 51.061-35.93h37.77c-8.432 40.942-45.041 71.86-88.83 71.86s-80.399-30.918-88.83-71.86h-273.816v-952.14h1051.676v952.14h-273.816zM1015.411-28.070h-979.146v664.702h979.146v-664.702z" />
<glyph unicode="&#xe90a;" glyph-name="calendarioRifiuti" d="M459.034 951.172c-9.763 0-17.655-7.892-17.655-17.655s7.892-17.655 17.655-17.655c22.987 0 42.408-14.795 49.717-35.31h36.776c-8.21 40.236-43.873 70.621-86.493 70.621zM564.966 951.172c-9.763 0-17.655-7.892-17.655-17.655s7.892-17.655 17.655-17.655c22.987 0 42.408-14.795 49.717-35.31h36.776c-8.21 40.236-43.873 70.621-86.493 70.621zM670.897 951.172c-9.763 0-17.655-7.892-17.655-17.655s7.892-17.655 17.655-17.655c22.987 0 42.408-14.795 49.717-35.31h36.776c-8.21 40.236-43.873 70.621-86.493 70.621zM757.389 880.552c1.165-5.703 1.783-11.617 1.783-17.655 0-48.675-39.601-88.276-88.276-88.276-9.763 0-17.655 7.892-17.655 17.655s7.892 17.655 17.655 17.655c29.202 0 52.966 23.764 52.966 52.966 0 6.232-1.271 12.111-3.249 17.655h-69.155c1.165-5.703 1.783-11.617 1.783-17.655 0-48.675-39.601-88.276-88.276-88.276-9.763 0-17.655 7.892-17.655 17.655s7.892 17.655 17.655 17.655c29.202 0 52.966 23.764 52.966 52.966 0 6.232-1.271 12.111-3.249 17.655h-69.155c1.165-5.703 1.783-11.617 1.783-17.655 0-48.675-39.601-88.276-88.276-88.276-9.763 0-17.655 7.892-17.655 17.655s7.892 17.655 17.655 17.655c29.202 0 52.966 23.764 52.966 52.966 0 6.232-1.271 12.111-3.249 17.655h-69.155c1.165-5.703 1.783-11.617 1.783-17.655 0-48.675-39.601-88.276-88.276-88.276-9.763 0-17.655 7.892-17.655 17.655s7.892 17.655 17.655 17.655c29.202 0 52.966 23.764 52.966 52.966 0 6.232-1.271 12.111-3.249 17.655h-99.434c7.309 20.515 26.73 35.31 49.717 35.31s42.408-14.795 49.717-35.31h36.776c-8.21 40.236-43.855 70.621-86.493 70.621s-78.283-30.385-86.493-70.621h-266.611v-935.724h1024v935.724h-266.611zM988.69-19.862h-953.379v653.241h953.379v-653.241zM659.329 523.886h-84.609v26.057c0 14.366-12.060 26.057-26.88 26.057h-71.68c-14.82 0-26.88-11.691-26.88-26.057v-26.057h-84.609c-17.571 0-31.871-13.862-31.871-30.895v-38.591h358.4v38.591c0 17.033-14.3 30.895-31.871 30.895zM556.8 523.886h-89.6v26.057c0 4.795 4.023 8.686 8.96 8.686h71.68c4.937 0 8.96-3.891 8.96-8.686v-26.057zM349.876 124.615c0-19.306 15.069-35.015 33.589-35.015h257.080c18.528 0 33.589 15.709 33.589 35.015v312.413h-324.267v-312.413h0.009z" />
<glyph unicode="&#xe90b;" glyph-name="cambioResidenza" horiz-adv-x="1103" d="M849.017-50.872c-10.454 0-18.905 7.596-18.905 16.994s8.451 16.994 18.905 16.994h36.487c10.454 0 19.567-7.596 19.567-16.977 0-9.398-7.789-16.994-18.243-16.994v16.994l-0.548-16.994-37.262-0.017zM773.397-50.872h-37.81c-10.454 0-18.905 7.596-18.905 16.994s8.451 16.994 18.905 16.994h37.81c10.454 0 18.905-7.596 18.905-16.994s-8.451-16.994-18.905-16.994zM659.967-50.872h-37.81c-10.454 0-18.905 7.596-18.905 16.994s8.451 16.994 18.905 16.994h37.81c10.454 0 18.905-7.596 18.905-16.994s-8.451-16.994-18.905-16.994zM546.538-50.872h-37.81c-10.454 0-18.905 7.596-18.905 16.994s8.451 16.994 18.905 16.994h37.81c10.454 0 18.905-7.596 18.905-16.994s-8.451-16.994-18.905-16.994zM433.108-50.872h-37.81c-10.454 0-18.905 7.596-18.905 16.994s8.451 16.994 18.905 16.994h37.81c10.454 0 18.905-7.596 18.905-16.994s-8.451-16.994-18.905-16.994zM319.678-50.872h-37.81c-10.454 0-18.905 7.596-18.905 16.994s8.451 16.994 18.905 16.994h37.81c10.454 0 18.905-7.596 18.905-16.994s-8.451-16.994-18.905-16.994zM952.37-21.676c-4.083 0-8.205 1.19-11.664 3.637-8.224 5.812-9.623 16.502-3.176 23.86 6.144 7.019 10.36 14.989 12.534 23.656 2.287 9.16 12.402 14.904 22.591 12.848s16.58-11.148 14.292-20.308c-3.365-13.46-10.171-26.324-19.699-37.184-3.724-4.283-9.263-6.509-14.878-6.509zM952.389 72.864c-5.615 0-11.154 2.226-14.878 6.492-6.050 6.917-13.876 12.644-22.629 16.552-9.339 4.181-13.158 14.377-8.507 22.789 4.651 8.395 15.956 11.845 25.352 7.647 13.744-6.135 26.013-15.125 35.522-25.967 6.447-7.376 5.048-18.065-3.176-23.86-3.46-2.447-7.6-3.654-11.683-3.654zM849.036 102.077h-37.81c-10.454 0-18.905 7.596-18.905 16.994s8.451 16.994 18.905 16.994h37.81c10.454 0 18.905-7.596 18.905-16.994s-8.451-16.994-18.905-16.994zM735.606 102.077h-37.81c-10.454 0-18.905 7.596-18.905 16.994s8.451 16.994 18.905 16.994h37.81c10.454 0 18.905-7.596 18.905-16.994s-8.451-16.994-18.905-16.994zM623.273 108.977c-2.628 0-5.293 0.493-7.846 1.546-13.914 5.71-26.505 14.343-36.43 24.931-6.711 7.189-5.69 17.912 2.306 23.945s19.907 5.115 26.637-2.073c6.314-6.747 14.349-12.253 23.215-15.907 9.49-3.892 13.668-13.969 9.32-22.518-3.176-6.237-10.020-9.925-17.204-9.925zM575.084 192.997c-1.191 0-2.382 0.102-3.573 0.306-10.265 1.767-16.958 10.689-15.011 19.9 2.93 13.748 9.131 26.443 18.395 37.761 6.201 7.562 18.016 9.16 26.429 3.62 8.413-5.574 10.209-16.213 4.027-23.758-5.917-7.206-9.849-15.278-11.702-24.013-1.758-8.157-9.679-13.816-18.565-13.816zM654.56 254.942c-10.076 0-18.47 7.155-18.867 16.298-0.416 9.381 7.675 17.3 18.111 17.674 1.607 0.068 3.214 0.102 4.84 0.102h33.745c10.454 0 18.905-7.596 18.905-16.994s-8.451-16.994-18.905-16.994l-37.035-0.068c-0.265-0.017-0.529-0.017-0.794-0.017zM998.933 255.027h-4.065c-10.454 0-18.905 7.596-18.905 16.994s8.451 16.994 18.905 16.994h4.065c8.866 0 17.449 1.546 25.56 4.605 9.547 3.654 20.701-0.425 24.747-9.092 4.046-8.65-0.473-18.609-10.114-22.246-12.761-4.809-26.278-7.257-40.192-7.257zM919.249 255.027h-37.81c-10.454 0-18.905 7.596-18.905 16.994s8.451 16.994 18.905 16.994h37.81c10.454 0 18.905-7.596 18.905-16.994s-8.451-16.994-18.905-16.994zM805.819 255.027h-37.81c-10.454 0-18.905 7.596-18.905 16.994s8.451 16.994 18.905 16.994h37.81c10.454 0 18.905-7.596 18.905-16.994s-8.451-16.994-18.905-16.994zM1080.565 309.918c-1.758 0-3.554 0.221-5.312 0.68-10.020 2.634-15.767 12.083-12.836 21.090 1.777 5.438 2.685 11.080 2.685 16.79 0.038 3.263-0.265 6.356-0.794 9.381-1.664 9.262 5.35 17.997 15.672 19.476 10.265 1.529 20.001-4.809 21.665-14.088 0.889-4.979 1.304-9.993 1.267-14.887 0-8.82-1.399-17.674-4.197-26.222-2.42-7.41-9.963-12.219-18.149-12.219zM1041.469 397.711c-3.214 0-6.484 0.731-9.471 2.294-8.564 4.47-17.903 7.087-27.79 7.783-10.417 0.731-18.187 8.905-17.374 18.269 0.813 9.381 9.944 16.298 20.323 15.618 15.559-1.088 30.324-5.234 43.803-12.27 9.037-4.707 12.118-15.125 6.862-23.231-3.479-5.421-9.831-8.463-16.353-8.463zM930.062 407.976h-37.81c-10.454 0-18.905 7.596-18.905 16.994s8.451 16.994 18.905 16.994h37.81c10.454 0 18.905-7.596 18.905-16.994s-8.451-16.994-18.905-16.994zM816.633 407.976h-37.81c-10.454 0-18.905 7.596-18.905 16.994s8.451 16.994 18.905 16.994h37.81c10.454 0 18.905-7.596 18.905-16.994s-8.451-16.994-18.905-16.994zM703.203 407.976h-37.81c-10.454 0-18.905 7.596-18.905 16.994s8.451 16.994 18.905 16.994h37.81c10.454 0 18.905-7.596 18.905-16.994s-8.451-16.994-18.905-16.994zM589.773 407.976h-6.749c-12.818 0.017-25.276 2.090-37.11 6.135-9.755 3.348-14.632 13.171-10.927 21.94 3.743 8.786 14.727 13.137 24.406 9.823 7.524-2.583 15.483-3.892 23.669-3.909h6.711c10.454 0 18.905-7.596 18.905-16.994s-8.451-16.994-18.905-16.994zM502.187 460.573c-7.94 0-15.351 4.537-17.96 11.692-3.441 9.381-5.161 19.204-5.161 29.196 0.019 4.045 0.302 7.97 0.832 11.794 1.286 9.279 10.436 15.822 21.117 14.734 10.36-1.156 17.714-9.67 16.391-18.983-0.359-2.498-0.51-5.064-0.529-7.63 0-6.288 1.115-12.525 3.289-18.49 3.252-8.905-2.136-18.524-12.061-21.464-1.966-0.595-3.97-0.85-5.917-0.85zM538.182 549.437c-6.314 0-12.477 2.838-16.069 8.004-5.52 7.97-2.817 18.456 6.031 23.418 13.233 7.427 27.828 11.947 43.368 13.494 10.454 0.969 19.718-5.71 20.871-15.040s-6.352-17.725-16.731-18.762c-9.849-0.986-19.113-3.858-27.488-8.548-3.119-1.733-6.56-2.566-9.982-2.566zM800.431 560.925h-37.81c-10.454 0-18.905 7.596-18.905 16.994s8.451 16.994 18.905 16.994h37.81c10.454 0 18.905-7.596 18.905-16.994s-8.451-16.994-18.905-16.994zM687.001 560.925h-37.81c-10.454 0-18.905 7.596-18.905 16.994s8.451 16.994 18.905 16.994h37.81c10.454 0 18.905-7.596 18.905-16.994s-8.451-16.994-18.905-16.994zM1007.819 906.437v0c-59.683 60.483-156.457 60.483-216.14 0v0c-59.683-60.483-59.683-158.523 0-219.006l108.061-109.512 108.061 109.512c59.702 60.466 59.702 158.523 0.019 219.006zM904.408 730.868c-46.979 0-85.072 34.244-85.072 76.475s38.093 76.475 85.072 76.475c46.979 0 85.072-34.244 85.072-76.475s-38.093-76.475-85.072-76.475zM361.42 465.077c-81.216 82.474-212.889 82.474-294.086 0v0c-81.216-82.474-81.216-216.185 0-298.642l147.043-149.329 147.043 149.329c81.216 82.474 81.216 216.185 0 298.642zM214.377 255.027c-52.197 0-94.525 38.050-94.525 84.972s42.328 84.972 94.525 84.972c52.197 0 94.525-38.050 94.525-84.972s-42.328-84.972-94.525-84.972z" />
<glyph unicode="&#xe90c;" glyph-name="faq" horiz-adv-x="1182" d="M632.668 960c-303.138 0-548.871-229.23-548.871-512 0-76.823 18.17-149.671 50.665-215.067l-129.831-237.356c-7.218-13.186-5.911-29.452 3.304-41.3 7.13-9.163 17.935-14.297 29.119-14.297 3.264 0 6.557 0.437 9.804 1.344l284.218 78.871c86.547-53.204 190.178-84.194 301.591-84.194 303.133 0 548.871 229.227 548.871 512 0 282.77-245.738 512-548.871 512zM631.747 184.958c-29.96 0-54.321 24.639-54.321 54.925s24.367 54.925 54.321 54.925c29.96 0 54.324-24.642 54.324-54.925 0.005-30.283-24.361-54.925-54.324-54.925zM688.66 446.238c-7.136-4.932-12.067-8.566-14.736-10.849v-57.394c0-23.506-18.923-42.63-42.169-42.63-23.257 0-42.169 19.124-42.169 42.63v61.835c0 41.229 29.76 61.794 51.493 76.806 23.454 16.202 38.948 26.905 38.948 60.332 0 26.913-21.65 48.808-48.272 48.808-26.624 0-48.272-21.895-48.272-48.808 0-23.508-18.92-42.632-42.171-42.632s-42.171 19.124-42.171 42.632c0 73.928 59.49 134.073 132.612 134.073 73.113 0 132.604-60.146 132.604-134.073 0.005-78.439-47.383-111.177-75.697-130.73z" />
<glyph unicode="&#xe90d;" glyph-name="image, jpg, jpeg, png, gif, tiff" d="M959.884 832c0.040-0.034 0.082-0.076 0.116-0.116v-767.77c-0.034-0.040-0.076-0.082-0.116-0.116h-895.77c-0.040 0.034-0.082 0.076-0.114 0.116v767.772c0.034 0.040 0.076 0.082 0.114 0.114h895.77zM960 896h-896c-35.2 0-64-28.8-64-64v-768c0-35.2 28.8-64 64-64h896c35.2 0 64 28.8 64 64v768c0 35.2-28.8 64-64 64v0zM832 672c0-53.020-42.98-96-96-96s-96 42.98-96 96 42.98 96 96 96 96-42.98 96-96zM896 128h-768v128l224 384 256-320h64l224 192z" />
<glyph unicode="&#xe90e;" glyph-name="app" horiz-adv-x="652" d="M559.813 960h-458.441c-43.875 0-79.292-32.928-79.292-73.463v-861.633c0-40.498 35.417-73.389 79.292-73.389h458.441c43.795 0 79.292 32.891 79.292 73.389v861.633c0 40.535-35.497 73.463-79.292 73.463zM217.471 915.386h226.322c5.718 0 10.363-7.901 10.363-17.677s-4.646-17.713-10.363-17.713h-226.322c-5.757 0-10.323 7.938-10.323 17.713s4.566 17.677 10.323 17.677zM330.632 24.022c-27.913 0-50.625 21.021-50.625 46.893s22.712 46.819 50.625 46.819c27.834 0 50.545-20.947 50.545-46.819s-22.712-46.893-50.545-46.893zM579.705 184.582h-498.187v651.462h498.187v-651.462z" />
<glyph unicode="&#xe90f;" glyph-name="amministrazionetrasparente" horiz-adv-x="1135" d="M478.546 370.060c14.894 33.305 43.188 87.011 72.977 135.96-23.083 2.719-36.494 10.184-42.452 18.353-10.42 14.28-2.979 21.073 14.147 20.39 17.126-0.672 37.242 0 53.62 1.354 23.083 36.718 38.713 59.145 55.851 81.572 11.168 14.962 20.104 14.28 28.293 1.365 5.222-8.158 8.189-19.719 8.189-27.877 0-12.221-2.967-27.866-11.916-46.902 23.083-2.719 35.735-13.597 40.957-21.744 7.441-12.232 2.231-20.401-15.63-18.353-13.411 1.354-32.768 0-49.145-2.048-28.305-44.171-70.745-111.485-96.82-163.143-8.925-18.353-13.399-36.035-13.399-50.986 0-20.379 7.453-34.659 20.116-34.659 29.029 0 67.754 42.817 93.817 93.804 8.189 16.317 25.327 17.682 30.537-0.672 3.715-14.28 0.736-24.486-7.453-40.12-10.42-20.379-60.313-78.852-122.858-78.852-39.473 0-73.724 29.231-73.724 76.133 0 14.951 4.474 33.998 14.894 56.425zM778.403 903.225c1.502 8.81 2.867 16.77 4.957 29.048 9.188-5.924 19.541-9.297 20.642-13.941 3.267-13.712 4.394-28.045 2.716-41.881-0.388-3.115-17.863-9.039-23.697-7.1-41.848 13.96-85.949 19.13-130.663 21.863-80.178 4.911-160.168 4.348-239.006-9.785-15.848-2.838-30.694-9.030-46.592-11.552-7.536-1.204-19.616 0.468-24.172 4.472-16.899 14.782-4.657 46.516 22.007 55.517 1.577-9.125 3.079-17.716 4.544-26.153 34.675-0.621 41.247 4.195 43.387 27.548 0.526 5.695 4.844 13.282 10.678 16.129 9.414 4.596 18.452 1.911 19.44-8.351 0.225-2.398-0.013-4.825 0.238-7.224 0.826-7.635-3.342-17.333 14.496-17.095 22.132 0.296 27.615 3.268 28.478 17.601 0.288 4.816-1.64 10.454 1.026 14.238 3.242 4.567 10.29 7.558 15.698 11.247 4.344-3.746 9.363-7.167 12.718-11.361 1.69-2.121 0.376-5.638 0.438-8.533 0.363-17.601 14.308-24.777 35.338-17.41 3.831 1.338 6.885 6.373 7.586 9.995 1.302 6.622-0.939 13.76 1.239 20.095 1.339 3.899 8.512 9.622 12.355 9.326 5.545-0.44 11.967-4.921 15.134-8.992 2.529-3.249 0.789-8.447 0.889-12.785 0.476-17.247 12.568-24.118 33.936-18.318 3.931 1.070 7.761 5.781 8.6 9.24 1.452 6.068-0.939 12.795 1.202 18.614 1.452 3.946 8.6 9.957 11.967 9.517 6.61-0.86 14.12-4.682 17.888-8.992 2.979-3.373 0.901-9.345 1.001-14.152 0.325-14.935 15.122-24.166 32.947-18.375 5.495 1.777 8.274 11.428 9.226 17.735 2.166 14.61 9.614 19.99 22.307 13.253 4.494-2.389 7.273-8.629 7.661-13.263 2.191-26.096 5.783-29.020 43.387-30.176zM396.017 812.651c-4.832 6.754-11.271 15.29-17.131 24.050-5.458 8.151 3.166 10.856 10.409 12.388 23.464 4.962 46.88 11.044 70.887 13.382 84.958 8.268 169.858 9.092 253.434-8.25 37.748-7.838 37.818-8.563 17.97-34.262-2.316-3.010-5.293-5.715-8.495-9.136-37.901 17.108-79.666 15.819-120.449 17.986-14.024 0.734-23.487 2.239-24.232 15.702-0.284 4.792-11.307 9.244-17.403 13.848-6.073-4.712-16.682-9.101-17.308-14.179-1.477-12.137-9.074-15.021-23.003-15.371-18.443-0.457-37.086-0.887-55.174-3.296-21.999-2.956-43.537-7.945-69.505-12.863zM420.408 771.215c31.615 27.034 264.97 27.599 302.708 0.078-9.395-3.149-16.613-6.642-24.298-7.984-61.742-10.8-124.123-11.543-186.578-7.707-23.979 1.475-47.859 4.968-71.641 8.305-6.64 0.931-12.825 4.557-20.191 7.307zM707.641 38.609c-28.242-5.086-56.458-10.15-84.7-15.225 0.137-2.049 0.249-4.109 0.374-6.169 34.678-22.646 77.29-22.784 118.58-26.617 0.412-1.624 0.836-3.228 1.247-4.852-6.699-1.847-13.46-5.5-20.071-5.287-36.026 1.178-71.29 5.871-103.848 20.406-18.736 8.366-18.874 8.154-32.458-9.492 35.564-24.441 79.137-25.821 121.848-29.462 0.449-1.773 0.898-3.557 1.36-5.34-6.923-1.996-13.971-5.988-20.745-5.691-37.298 1.667-73.848 6.997-106.879 22.944-10.591 5.128-19.285 5.032-29.764 0.021-32.508-15.533-68.321-21.128-105.008-22.975-7.098-0.361-14.42 2.484-21.63 3.843 0.075 1.932 0.15 3.865 0.225 5.808 7.435 1.072 14.832 2.707 22.316 3.153 52.105 3.143 96.476 18.092 133.462 51.854 32.944 30.078 78.463 32.722 124.006 29.282 0.561-2.060 1.123-4.141 1.684-6.2zM936.602 186.585c22.342 10.005 44.697 20.019 67.040 30.033-0.561 1.233-1.134 2.475-1.708 3.718-26.865-6.127-53.731-12.263-80.596-18.4l-3.624 3.388c5.188 3.972 10.102 8.179 15.733 11.802 2.829 1.816 8.173 1.873 10.324 3.878 20.361 18.908 49.677 26.927 79.827 32.395 18.171 3.294 38.193 3.991 56.794 2.391 10.884-0.941 14.43-11.181 4.289-16.593-17.975-9.609-24.376-30.146-53.222-29.628-2.464 0.047-6.4-2.353-7.352-4.226-13.504-26.4-50.485-16.066-75.095-24.969-2.412-0.875-6.948 1.308-10.493 2.071-0.639 1.374-1.277 2.767-1.916 4.141zM1000.221 280.815c18.703 10.319 37.417 20.637 56.132 30.956-0.751 1.098-1.515 2.196-2.266 3.294-22.52-6.443-45.051-12.887-67.559-19.34-1.324 1.062-2.636 2.115-3.948 3.167 5.32 4.329 10.425 8.83 16.043 12.923 8.051 5.863 16.556 11.362 24.702 17.161 2.6 1.851 4.187 5.336 7.073 6.026 23.092 5.563 46.315 10.791 69.646 15.755 5.63 1.189 11.892 1.742 17.641 1.198 5.32-0.508 12.691-1.86 14.838-4.719 2.302-3.077 1.741-10.409-1.348-12.288-15.554-9.493-19.43-29.531-45.981-29.504-3.471 0-7.813-5.255-10.258-8.685-7.55-10.654-17.832-16.608-34.698-15.564-5.439 0.336-11.117-2.568-16.842-3.412-6.823-1.007-13.812-1.398-20.73-2.060-0.811 1.697-1.634 3.394-2.445 5.091zM808.676 40.867h-85.56c5.278 4.518 7.037 7.3 9.825 8.149 5.699 1.745 12.662 1.49 17.84 3.744 28.607 12.431 60.013 12.497 91.383 12.742 6.529 0.047 13.219-0.83 19.587-2.028 6.975-1.292 14.086-2.848 20.355-5.404 5.464-2.216 12.922-5.518 13.863-9.168 0.954-3.773-3.853-11.526-7.966-12.375-20.207-4.178-34.615-21.307-59.716-15.204-4.188 1.019-11.287-3.084-16.106-5.801-13.133-7.395-26.364-10.026-41.913-4.075-4.448 1.707-10.642 0.623-15.982 1.16-7.025 0.698-14 1.726-20.987 2.603-0.112 2.16-0.211 4.31-0.31 6.47 25.336 5.065 50.659 10.13 75.983 15.195-0.087 1.33-0.198 2.66-0.297 3.99zM491.645 44.882c-26.913 4.336-53.838 8.654-80.762 12.99 0.443 1.638 0.875 3.295 1.306 4.933 28.686 2.897 57.001 1.503 84.069-7.233 13.888-4.49 22.863-2.535 29.094 9.478-28.147 14.637-59.829 14.492-91.882 13.098-0.24 1.122-0.467 2.245-0.695 3.367 5.728 1.077 11.599 3.349 17.183 3.014 25.115-1.466 50.542-2.272 75.059-6.164 14.032-2.227 25.798-2.507 39.974-0.145 24.456 4.064 49.919 4.843 75.023 6.355 5.943 0.362 12.15-1.819 18.237-2.842-0.192-1.113-0.395-2.218-0.599-3.331-12.378 0-24.816 0.552-37.134-0.109-33.132-1.774-61.494-11.044-84.776-29.727-38.835-31.139-89.845-39.015-143.587-40.39-4.973-0.118-10.089 3.032-14.99 6.481 39.423 6.11 80.774 5.323 114.086 24.595 0.132 1.883 0.264 3.757 0.395 5.63zM818.644 94.717c26.611 5.698 53.235 11.406 79.859 17.104-0.174 1.518-0.36 3.027-0.546 4.555-28.781-1.228-57.55-2.465-86.332-3.693-0.67 0.965-1.352 1.921-2.021 2.887 3.088 2.212 5.741 4.995 9.35 6.504 3.695 1.546 8.854 1.181 12.438 2.83 29.662 13.655 63.205 16.401 96.326 17.029 16.703 0.319 35.081-4.583 49.936-10.853 9.586-4.049 3.906-14.011-6.138-16.692-19.63-5.239-33.518-22.634-58.716-16.158-0.967 0.253-2.939-0.131-3.497-0.712-20.027-20.928-48.845-9.691-74.006-11.368-5.394-0.356-11.111 2.081-16.679 3.224 0 1.781 0.012 3.571 0.025 5.342zM813.691 144.325c1.414 19.084 2.828 38.169 4.232 57.242-1.383 0.449-2.786 0.886-4.19 1.323-7.187-18.681-14.353-37.373-21.445-55.841-2.47 0.819-4.327 1.346-4.306 1.446 5.266 25.543-8.19 54.607 12.77 77.28 2.153 2.31 4.897 5.797 4.654 8.477-1.857 20.419 18.237 24.826 25.065 38.931 1.161 2.4 9.741 3.498 12.643 1.503 3.799-2.59 8.063-9.363 7.409-13.489-2.565-16.27 10.121-34.816-6.068-49.046-0.665-0.583-1.129-2.422-0.77-3.162 12.021-24.915-7.725-40.075-16.126-58.577-1.562-3.454-5.52-5.685-8.369-8.466-1.826 0.785-3.662 1.592-5.498 2.377zM242.090 112.826c23.847-8.362 47.706-16.724 73.87-25.897-55.358-9.809-128.564 12.712-155.016 46.181 45.627 19.72 132.447 5.315 172.976-32.022-33.866-1.549-61.257 10.753-90.114 15.749-0.564-1.344-1.14-2.678-1.716-4.012zM117.699 336.241c-12.079 9.419-22.472 16.893-32.033 25.149-9.605 8.305-18.388 17.391-27.539 26.146-1.070-0.811-2.161-1.632-3.23-2.443 13.98-16.991 27.971-33.992 42.837-52.038-42.826 8.041-89.466 59.414-88.116 95.223 39.92 5.022 104.711-48.159 108.081-92.038zM74.455 216.858c58.107 7.919 136.266-15.855 151.354-47.998-28.766 8.777-55.003 16.773-81.216 24.761-0.635-0.866-1.282-1.75-1.905-2.625 20.921-9.357 41.843-18.723 63.411-28.374-39.115-9.236-120.272 24.207-131.644 54.236zM304.861 141.948c-9.823 26.8-18.429 50.288-27.035 73.776-1.002-0.149-1.982-0.308-2.984-0.478 3.867-22.374 7.744-44.758 11.751-67.991-31.72 20.782-52.335 94.717-29.404 128.468 38.667-15.719 69.956-94.558 47.672-133.775zM9.589 331.879c51.673 8.027 129.002-26.074 151.354-69.806-16.461 6.664-28.85 11.193-40.645 16.575-12.327 5.642-24.073 12.095-36.078 18.198-1.176-1.192-2.364-2.385-3.564-3.577 18.095-11.855 36.189-23.72 55.485-36.356-45.187-4.349-118.544 39.533-126.551 74.967zM147.993 371.277c1.858 23.3 3.729 46.611 5.599 69.9-1.532 0.208-3.051 0.416-4.582 0.614-6.365-21.5-12.743-43-19.209-64.874-22.41 24.819-14.463 101.182 30.269 128.135 36.409-32.146 25.913-115.564-12.078-133.775zM13.113 557.421c43.882-13.378 82.012-73.299 73.364-120.47-8.865 12.925-16.022 22.567-22.292 32.723-6.595 10.671-12.325 21.816-18.422 32.744-1.287-0.422-2.562-0.854-3.838-1.286 7.568-19.634 15.146-39.268 23.125-59.921-35.406 10.414-66.088 80.214-51.936 116.21zM307.545 35.392c24.706-5.971 49.411-11.941 76.226-18.417-42.661-20.286-128.069-3.432-157.962 29.371 31.108 29.618 139.92 25.258 172.976-15.608-32.659 3.303-61.497 6.206-90.322 9.109-0.298-1.493-0.608-2.974-0.918-4.454zM1072.037 375.020c7.794 18.29 15.609 36.57 23.413 54.871-1.214 0.788-2.44 1.566-3.643 2.364-13.539-17.264-27.078-34.528-42.454-54.125-0.94 6.118-2.429 9.601-1.721 12.577 1.077 4.469 4.435 8.409 5.523 12.878 5.766 23.641 17.784 44.285 34.734 61.196 9.42 9.394 22.484 17.181 35.325 20.758 9.526 2.665 12.504-8.502 9.726-16.683-4.795-14.091 0.56-32.257-16.686-41.537-0.76-0.404-1.521-1.949-1.331-2.727 5.967-24.626-17.172-32.952-28.134-48.007-2.017-2.758-6.78-3.588-10.276-5.309-1.5 1.244-2.978 2.499-4.478 3.743zM227.803 218.391c-2.698 17.647-4.996 31.466-6.88 45.319-1.898 13.807-3.395 27.637-5.060 41.467h-5.602v-78.769c-36.97 34.216-35.511 113.844-4.040 144.869 40.946-19.759 57.21-113.507 21.583-152.886zM752.952 68.156c2.13 23.927 4.248 47.855 6.366 71.782-1.94 0.555-3.893 1.122-5.845 1.677-7.939-23.553-15.867-47.095-23.806-70.638-1.81-0.068-3.632-0.136-5.455-0.204-0.296 6.208-0.84 12.428-0.816 18.637 0.024 10.083 0.485 20.143 0.627 30.226 0.035 2.832-1.751 6.684-0.402 8.361 13.784 17.107 10.625 42.824 31.296 56.351 1.917 1.246 3.171 3.489 5.135 4.622 6.295 3.603 12.779 6.899 19.191 10.31 2.733-6.956 7.62-13.867 7.809-20.902 0.627-22.908 2.497-46.404-1.929-68.61-3.124-15.646-15.701-29.569-24.066-44.263-2.698 0.884-5.395 1.767-8.105 2.651zM369.874 180.17c43.782-24.218 65.498-89.791 38.991-133.775-7.186 23.572-14.372 47.156-21.558 70.728-1.355-0.161-2.71-0.323-4.077-0.496 1.742-20.77 3.484-41.528 5.202-62.286-32.773 10.61-44.871 92.732-18.558 125.829zM967.314 363.849v-69.015c-5.242 3.046-9.392 4.283-9.452 5.691-1.14 25.043-25.789 44.178-16.397 73.355 4.246 13.203 0.588 30.002 8.792 43.697 2.699 4.5 7.581 11.233 11.095 11.027 5.23-0.286 12.786-4.821 14.706-9.333 6.381-15.070 23.354-27.162 15.413-46.869-0.924-2.29 3.85-6.664 5.949-10.1 2.411-3.939 7.089-8.073 6.765-11.817-1.391-16.467-4.234-32.83-6.561-49.239-2.459-0.218-4.918-0.435-7.377-0.653-5.901 21.368-11.803 42.724-17.704 64.080-1.751-0.275-3.478-0.55-5.23-0.824zM221.558 849.046c14.603-37.836-9.896-96.994-50.732-114.664 9.066 21.079 16.673 38.779 24.279 56.46-1.124 0.68-2.238 1.359-3.362 2.049-9.676-14.292-19.352-28.585-30.404-44.937-4.16 41.214 25.14 89.204 60.219 101.092zM926.626 219.816c1.36 19.69 2.732 39.391 4.092 59.081-1.809 0.351-3.619 0.713-5.416 1.063-7.286-19.284-14.559-38.591-21.833-57.886-1.773-0.121-3.546-0.219-5.319-0.329-0.486 4.703-1.372 9.407-1.372 14.121-0.024 9.637 0.522 19.263 0.619 28.888 0.024 2.149-1.979 4.901-1.069 6.37 13.127 20.995 19.72 45.728 41.553 61.548 2.501 1.809 16.126-3.278 16.126-5.175 0.024-15.699 15.494-31.531 0.194-47.351-1.797-1.864-1.36-6.6-0.243-9.45 9.071-23.144-12.677-35.116-19.902-52.306-2.477 0.482-4.954 0.954-7.431 1.425zM995.286 409.499c-3.037 4.798-6.028 9.629-9.111 14.405-4.13 6.419-8.259 12.849-12.55 19.181-2.14 3.177-6.591 6.116-6.661 9.218-0.472 21.008-10.365 41.518-3.716 62.904 2.738 8.829 14.046 12.492 20.108 4.658 8.8-11.347 25.089-18.76 23.709-36.212-0.173-2.334 1.795-5.133 3.474-7.219 15.955-19.635 19.222-32.398 10.721-58.798-4.866 8.407-9.847 16.782-14.575 25.266-4.774 8.57-9.295 17.247-13.942 25.881-1.61-0.367-3.221-0.746-4.843-1.113 4.256-18.738 8.49-37.466 12.734-56.194-1.783-0.659-3.566-1.308-5.349-1.978zM1095.1 468.919c2.752 17.997 5.505 35.994 8.246 54.003-1.691 0.556-3.382 1.101-5.085 1.657-8.362-17.475-16.736-34.95-25.051-52.312-2.181 0.794-4.175 1.407-4.14 1.532 5.598 22.298-1.073 46.264 14.52 67.779 8.665 11.972 12.549 27.416 26.778 35.416 4.595 2.587 10.741 5.333 15.266 4.267 3.137-0.726 6.834-7.977 6.566-12.074-0.956-14.026 7.709-29.708-6.601-41.872-1.283-1.101-1.656-4.709-0.851-6.411 13.062-27.518-15.955-35.756-22.859-54.071-2.263 0.704-4.525 1.384-6.788 2.088zM169.431 600.606c25.659-33.406 12.823-87.279-30.654-114.664 2.16 12.229 3.082 21.135 5.435 29.811 2.477 9.188 6.288 18.156 9.507 27.229-1.816 0.617-3.646 1.233-5.476 1.861-8.104-14.707-16.194-29.424-24.655-44.81-17.611 28.818 6.205 80.945 45.843 100.574zM104.863 772.603c39.97-26.641 47.564-83.252 10.069-114.664-2.106 21.993-3.874 40.341-5.642 58.689-1.614 0.082-3.244 0.174-4.858 0.266-3.397-16.495-6.81-32.969-10.269-49.761-30.423 26.938-24.673 81.388 10.7 105.47zM82.114 580.789v-53.385c-34.221 27.278-38.833 85.328-11.796 111.423 39.912-15.911 64.583-82.141 32.994-114.664-5.721 18.912-11.427 37.802-17.133 56.714-1.345-0.033-2.705-0.055-4.065-0.088zM123.379 619.717c9.984 16.852 18.657 31.495 27.33 46.149-0.974 0.904-1.937 1.807-2.911 2.701-9.756-11.44-19.521-22.9-29.595-34.72-5.454 29.020 34.612 77.501 62.25 81.423 10.66-30.674-20.654-85.942-57.074-95.554zM978.122 759.198c-8.791 12.961-16.833 24.861-24.9 36.752-1.829-0.397-3.685-0.805-5.528-1.202 3.053-13.287 6.107-26.583 9.476-41.256-3.843 0.683-7.831 0.723-8.094 1.518-6.225 18.3-34.323 28.713-29.191 51.618 2.408 10.688-2.185 22.233-2.172 33.379 0 3.087 4.448 7.927 8.094 8.793 3.856 0.917 11.318-0.856 13.542-3.383 8.568-9.69 15.53-20.225 23.387-30.313 2.645-3.403 5.87-6.603 9.357-9.527 10.094-8.477 14.451-33.869 6.028-46.381zM1085.715 582.466c-1.485 15.017-2.954 30.024-4.439 45.031l-7.572 0.388c-5.003-14.935-9.992-29.871-15.010-44.796-1.44-0.072-2.895-0.143-4.32-0.225-1.499 2.883-3.949 5.725-4.291 8.679-1.099 9.057-1.381 18.166-1.945 27.264-0.163 2.545-1.455 5.52-0.030 7.565 10.571 15.273 21.245 30.515 33.003 45.358 2.271 2.852 10.615 6.042 14.045 5.173 5.048-1.298 11.105-5.878 11.669-9.446 2.895-18.493 6.829-37.231 5.033-55.632-1.024-10.366-12.397-20.231-19.107-30.331-2.346 0.327-4.691 0.654-7.037 0.971zM1019.664 682.209c-18.236 22.661-19.062 45.86-9.126 68.81 3.333 7.76 12.929 14.931 22.104 21.008 2.443 1.624 16.634-0.408 20.356-3.277 5.696-4.393 9.223-10.877 9.79-16.615 2.362-23.926 18.576-48.739-12.816-75.085-5.647 17.242-10.194 31.098-14.725 44.964l-8.204-0.12c-2.46-13.228-4.935-26.456-7.379-39.684zM1024.675 530.559c-10.595 15.050-18.847 26.772-27.088 38.494-1.347-0.524-2.682-1.048-4.017-1.572 3.422-13.85 6.857-27.689 10.291-41.539-1.566-0.6-3.131-1.179-4.697-1.779-6.529 18.336-28.823 26.63-31.287 48.917-1.335 12.18-10.097 23.934-5.692 37.195 1.117 3.394 2.949 8.546 5.534 9.157 3.884 0.917 9.515-0.48 12.973-2.696 4.806-3.078 9.090-7.378 12.245-11.918 14.915-21.512 38.35-39.869 31.736-74.259zM982.472 666.873c-10.35 10.371-17.972 18.008-25.583 25.644-1.328-0.741-2.656-1.501-3.973-2.252 4.882-9.778 9.755-19.574 14.637-29.37-1.317-0.982-2.645-1.965-3.962-2.956-11.020 11.094-23.681 21.27-32.547 33.587-6.932 9.648-9.608 21.854-13.163 33.17-0.826 2.623 1.558 7.303 4.161 9.11 1.882 1.298 7.057 0.185 9.922-1.205 5.008-2.437 10.434-5.19 13.842-9.083 14.208-16.256 38.6-27.007 36.666-56.646zM659.915-30.049c-16.895 2.725-23.314 7.875-23.287 21.241 0.041 13.843 7.808 17.263 19.864 16.963 11.561-0.3 25.211-1.335 23.177-15.655-1.155-8.257-12.826-15.069-19.754-22.549zM420.408-21.675c7.708 3.874 15.434 10.753 23.142 10.737 6.718-0.016 13.418-7.811 20.102-12.167-0.907-2.315-1.814-4.645-2.721-6.944h-36.527c-1.344 2.781-2.67 5.577-3.997 8.374z" />
<glyph unicode="&#xe910;" glyph-name="stamp" horiz-adv-x="887" d="M785.372 259.467h-227.707l59.745 506.871c5.791 49.146-9.896 98.532-43.046 135.496s-80.764 58.166-130.631 58.166c-49.867 0-97.481-21.202-130.629-58.166-33.15-36.964-48.839-86.35-43.046-135.498l59.745-506.869h-227.707c-56.299 0-102.097-45.446-102.097-101.308v-136.212c0-11.264 9.205-20.398 20.557-20.398h31.048v-45.15c0-11.264 9.205-20.398 20.557-20.398h743.142c11.352 0 20.557 9.134 20.557 20.398v45.15h31.050c11.352 0 20.557 9.134 20.557 20.398v136.212c0.002 55.862-45.798 101.308-102.095 101.308zM321.39 763.436c-4.491 37.509 7.675 75.2 33.378 103.412 25.703 28.21 62.622 44.39 101.29 44.39s75.587-16.178 101.292-44.392c25.703-28.21 37.869-65.903 33.378-103.41l-61.133-510.484h-147.071l-61.135 510.484zM788.857-15.238h-690.25v24.381h690.252v-24.381h-0.002zM862.815 57.905h-813.511v19.991h254.516c11.468 0 20.768 8.841 20.768 19.743s-9.3 19.743-20.768 19.743h-254.516v52.62c0 32.295 27.638 58.569 61.609 58.569h690.293c33.971 0 61.609-26.274 61.609-58.569v-112.098z" />
<glyph unicode="&#xe911;" glyph-name="urp" horiz-adv-x="1103" d="M1088.284 566.138c-24.497 128.985-100.234 222.326-209.211 288.532-140.406 85.307-294.085 108.15-454.695 79.124-125.873-22.686-237.056-75.894-323.111-173.529-83.102-94.366-118.626-203.303-93.184-328.271 17.526-86.016 63.134-156.514 127.921-214.725 9.767-8.783 12.012-16.699 9.334-29.46-15.242-72.31-51.279-133.79-96.965-190.385-10.634-13.154-21.819-25.915-34.737-41.118 51.515-16.502 100.431-16.778 149.189-8.113 89.127 15.833 163.17 61.401 229.1 121.305 9.374 8.507 17.762 11.697 30.247 9.216 18.826-3.82 38.046-5.632 59.589-8.625-2.914 7.010-4.214 10.279-5.632 13.509-37.337 83.889-22.686 168.015 40.921 234.654 96.807 101.376 279.079 127.134 403.732 56.99 38.518-21.622 74.082-46.946 100.549-83.653 57.935 73.846 84.165 183.729 66.954 274.55zM942.101 357.944c-97.562 75.002-239.924 84.259-339.429 12.659-146.971-105.739-99.924-257.801-3.086-323.784 65.867-44.859 137.029-56.054 213.333-47.351 8.762 1.029 19.2-2.927 27.2-7.595 24.457-14.36 46.819-33.585 72.495-44.622 29.981-12.896 62.743-14.637 93.752-5.578-17.029 30.578-33.676 59.1-48.914 88.373-9.981 19.186-7.733 35.049 8.952 52.612 91.962 96.759 46.4 220.932-24.305 275.285z" />
<glyph unicode="&#xe912;" glyph-name="mepa" horiz-adv-x="1785" d="M599.186 52.438c-0.276-19.256-17.257-36.045-36.597-36.131-20.976-0.086-36.895 16.597-36.214 37.975 0.659 20.371 16.726 35.509 37.022 34.866 19.531-0.6 36.066-17.562 35.789-36.71zM1522.251 89.191c19.956-0.407 35.832-16.618 35.747-36.495-0.085-19.856-16.216-36.088-36.066-36.345-20.551-0.236-37.447 17.047-36.81 37.675 0.616 19.834 17.236 35.573 37.128 35.166zM1730.144 658.043c-14.388 0.021-28.797 0.021-43.164 0.021-0.893-7.591-3.4-14.817-7.97-20.949-14.516-19.406-28.202-40.934-43.589-60.79h56.404c-28.032-90.874-55.469-179.861-83.204-269.834h-22.974c-154.273 0-870.805 0.365-1025.077-0.515-18.128-0.086-25.376 5.79-31.433 22.45-27.735 76.1-57.042 151.621-85.733 227.378-2.338 6.197-4.166 12.587-6.758 20.521l-40.295 102.818c-9.967 30.406-22.783 59.825-33.643 89.93-7.098 19.706-20.084 30.384-40.848 30.513-41.294 0.236-82.63 1.029-123.86-0.515-10.988-0.407-26.545-5.532-31.39-13.68-6.652-11.279-8.735-28.176-6.248-41.427 3.273-17.519 20.126-22.901 36.469-23.394 26.374-0.772 52.834-1.287 79.166 0.086 15.429 0.815 22.336-4.546 27.756-18.998 65.671-174.672 132.021-349.086 198.117-523.608 2.593-6.819 4.484-13.938 6.525-20.349-60.187-48.267-77.338-103.611-49.455-156.639 27.99-53.242 84.755-77.043 141.181-59.203 54.683 17.283 83.098 72.776 74.533 146.389h735.447c-21.423-88.622 44.482-150.485 106.646-151.685 62.27-1.222 115.317 44.172 120.396 106.184 5.186 63.513-39.36 119.478-102.438 124.646-40.38 3.345-81.121 2.337-121.714 2.444-100.865 0.279-704.609-0.064-805.474 0.429-6.886 0.043-17.3 2.895-19.977 7.805-7.63 14.045-12.135 29.827-19.042 48.074h27.246c155.038 0.021 872.314-0.043 1027.351 0.043 36.937 0.021 45.629 6.712 56.638 42.285 33.26 107.385 66.521 214.748 99.717 322.154 14.431 46.766-0.638 67.373-49.306 67.416zM561.053 320.050c-2.473-0.441-5.457 2.12-5.884 4.47l-77.021 433.535c-0.512 2.959 0.81 6.254 3.88 6.779l165.575 28.501c3.091 0.546 5.99-1.406 7.227-4.848l39.502-114.822c1.343-4.072 2.921-5.625 4.136-5.415 1.258 0.21 2.047 2.812 1.322 6.947l-5.948 119.397c0 3.652 1.94 7.031 5.649 7.681l171.758 29.571c4.306 0.735 7.205-1.196 7.952-5.352l76.787-432.339c0.64-3.547-2.025-6.464-5.734-7.115l-111.812-19.245c-3.709-0.63-7.227 1.238-7.952 5.373l-32.979 185.633c-0.831 4.743-1.791 6.401-3.006 6.191-1.258-0.21-2.068-2.791-2.217-12.613l0.213-187.585c0-3.673-2.878-5.394-5.948-5.918l-69.816-12.026c-3.091-0.546-5.99 1.448-7.973 5.373l-58.517 164.709c-3.645 9.759-6.459 11.123-8.314 10.808-1.833-0.336-2.558-3.505-1.705-8.248l30.868-173.754c0.725-4.155-0.703-6.884-5.031-7.618l-105.011-18.070zM892.431 849.342c-0.654 3.546 2.4 8.281 6.807 9.032l224.441 37.525c3.796 0.647 6.872-1.898 7.505-5.423l19.394-106.088c0.654-3.567-2.073-6.425-5.868-7.071l-105.567-17.647c-2.552-0.417-4.123-2.482-3.687-4.881l6.043-32.999c0.436-2.336 3.294-3.692 5.192-3.358l49.936 8.344c2.531 0.417 4.756-1.064 5.192-3.4l19.612-107.277c0.524-2.941-1.571-5.736-4.080-6.153l-51.224-8.552c-2.531-0.438-4.101-2.524-3.556-5.465l6.37-34.772c0.415-2.357 2.64-3.817 4.538-3.483l109.385 18.293c4.407 0.73 7.483-1.773 8.028-4.735l20.049-109.634c0.633-3.546-1.985-7.029-5.781-7.655l-226.317-37.859c-3.796-0.626-7.614 2.399-8.355 6.529l-78.057 426.731zM1298.842 754.376c0.414-2.397 2.936-6.313 7.113-5.564 8.995 1.626 11.249 10.143 9.222 22.212l-4.198 24.801c-1.634 9.694-7.547 15.493-15.343 14.080-1.799-0.321-2.998-0.556-4.094-1.391-1.096-0.813-1.282-3.36-0.972-5.178l8.271-48.96zM1147.541 889.636c-1.034 6.056 1.241 10.828 6.638 11.812l139.618 25.25c27.564 4.986 119.622 1.091 138.935-113.198 9.512-56.235-30.831-120.838-88.336-131.259-29.383-5.307-32.382-5.863-31.141-13.117l32.382-191.688c0.827-4.836-2.151-9.116-8.747-10.314l-104.858-18.981c-5.397-0.963-10.401 3.124-11.435 9.159l-73.055 432.337zM1575.908 727.227c-2.783 8.035-5.017 13.106-6.924 12.793s-2.432-4.612-1.95-14.275l2.038-57.412c-0.11-3.068 1.709-5.781 4.864-5.259 20.333 3.381 22.239 3.715 20.639 8.932l-18.667 55.221zM1590.96 958.858c4.448 0.73 8.26-2.275 9.662-6.303l164.414-407.144c2.454-6.282 0.46-13.315-6.507-14.463l-102.868-17.155c-3.812-0.626-8.063 1.127-9.356 4.55l-28.921 86.337c-1.183 2.838-4.053 4.195-7.23 3.673l-34.268-5.718c-2.563-0.417-4.645-3.214-4.623-6.866l3.834-88.696c0.131-4.216-3.878-7.325-7.055-7.868l-104.775-17.447c-5.697-0.96-9.64 2.65-9.443 8.744l7.011 439.367c0.088 3.068 2.498 7.722 6.332 8.348l123.793 20.64zM250.707 495.649h-74.015v-78.221h-34.711v78.221h-74.015v33.434h74.015v77.511h34.711v-77.511h74.015v-33.434zM159.336 672c-88.015 0-159.336-71.636-159.336-159.989 0-88.375 71.321-160.011 159.336-160.011s159.358 71.636 159.358 160.011c0 88.353-71.343 159.989-159.358 159.989v0z" />
<glyph unicode="&#xe913;" glyph-name="film" d="M0 832v-768h1024v768h-1024zM192 128h-128v128h128v-128zM192 384h-128v128h128v-128zM192 640h-128v128h128v-128zM768 128h-512v640h512v-640zM960 128h-128v128h128v-128zM960 384h-128v128h128v-128zM960 640h-128v128h128v-128zM384 640v-384l256 192z" />
</font>
</defs>
</svg>
